<svg width="849" height="799" viewBox="0 0 849 799" fill="none" xmlns="http://www.w3.org/2000/svg">
<g clip-path="url(#clip0)">
<rect width="849" height="798.131" fill="white"/>
<path d="M169.957 644.109C170.131 661.903 159.613 668.218 146.565 668.346C146.262 668.349 145.96 668.348 145.66 668.344C145.055 668.337 144.456 668.316 143.864 668.279C132.08 667.56 122.866 661.118 122.704 644.57C122.537 627.444 144.214 605.618 145.84 604.004L145.843 604.003C145.905 603.941 145.936 603.911 145.936 603.911C145.936 603.911 169.784 626.316 169.957 644.109Z" fill="#6C63FF"/>
<path d="M542.957 643.109C543.131 660.903 532.613 667.218 519.565 667.346C519.262 667.349 518.96 667.348 518.66 667.344C518.055 667.337 517.456 667.316 516.864 667.279C505.079 666.56 495.866 660.118 495.704 643.57C495.537 626.444 517.214 604.618 518.84 603.004L518.843 603.003C518.905 602.941 518.936 602.911 518.936 602.911C518.936 602.911 542.784 625.316 542.957 643.109Z" fill="#6C63FF"/>
<path d="M849 666.066H0V668.066H849V666.066Z" fill="#3F3D56"/>
<path d="M173 332C264.679 332 339 257.679 339 166C339 74.3207 264.679 0 173 0C81.3207 0 7 74.3207 7 166C7 257.679 81.3207 332 173 332Z" fill="#6C63FF"/>
<path d="M375 518H375C414.783 518 452.936 533.804 481.066 561.934C509.196 590.064 525 628.217 525 668V668H290V603C290 580.457 298.955 558.836 314.896 542.896C330.836 526.955 352.457 518 375 518Z" fill="#3F3D56"/>
<path d="M399.425 306.103C399.425 306.103 405.957 327.566 402.224 334.098C398.491 340.63 408.756 354.628 425.553 348.095C442.35 341.563 443.283 334.098 443.283 334.098C443.283 334.098 436.751 323.833 434.885 302.37L399.425 306.103Z" fill="#FFB9B9"/>
<path d="M314.04 516.531C314.04 516.531 280.446 533.328 295.377 555.724C304.056 568.742 320.616 594.056 332.964 612.973C343.298 628.805 351.223 646.084 356.48 664.244L358.832 672.369L368.164 683.567L387.76 661.171C387.76 661.171 358.832 607.981 358.832 597.716C358.832 587.452 335.503 554.791 335.503 554.791L358.832 539.86C358.832 539.86 332.703 509.999 314.04 516.531Z" fill="#FFB9B9"/>
<path d="M423.22 574.387C423.22 574.387 424.153 600.516 425.086 610.781C425.856 619.249 418.369 642.961 420.965 669.34C422.55 686.406 422.36 703.591 420.4 720.618L416.688 754.488L444.683 757.287L454.015 680.768C454.015 680.768 459.613 626.644 456.814 608.914L457.747 571.588C457.747 571.588 437.218 564.123 423.22 574.387Z" fill="#FFB9B9"/>
<path d="M373.296 465.674C373.296 465.674 307.975 507.666 307.041 520.73C307.041 520.73 344.368 516.998 345.301 549.658C345.301 549.658 367.697 541.26 373.296 539.394C378.895 537.527 408.756 517.931 408.756 517.931C408.756 517.931 420.887 527.263 420.887 542.193C420.887 557.124 419.954 583.252 420.887 585.119C421.82 586.985 443.283 559.923 461.013 583.252L473.144 518.864C473.144 518.864 476.877 479.671 469.412 476.872L417.155 457.275L373.296 465.674Z" fill="#2F2E41"/>
<path d="M412.955 317.768C428.417 317.768 440.95 305.234 440.95 289.773C440.95 274.312 428.417 261.778 412.955 261.778C397.494 261.778 384.961 274.312 384.961 289.773C384.961 305.234 397.494 317.768 412.955 317.768Z" fill="#FFB9B9"/>
<path d="M405.957 338.764C405.957 338.764 437.533 347.104 441.808 331.269C441.808 331.269 480.61 338.764 487.142 363.959C493.674 389.154 471.278 449.81 471.278 451.676C471.278 453.543 489.941 464.741 481.543 470.34C473.144 475.939 465.679 469.406 469.412 476.872C473.144 484.337 479.676 486.203 474.077 488.07C468.479 489.936 434.885 461.008 408.756 468.473C382.628 475.939 369.563 470.34 369.563 470.34L357.847 369.081C357.39 365.201 357.911 361.269 359.364 357.643C360.817 354.017 363.154 350.812 366.164 348.322C372.012 343.508 379.771 338.308 387.293 336.897C402.224 334.098 402.844 332.565 402.844 332.565L405.957 338.764Z" fill="#D0CDE1"/>
<path d="M376.095 502.067C376.095 502.067 384.494 549.659 395.692 543.126C406.89 536.594 392.892 502.067 392.892 502.067H376.095Z" fill="#FFB9B9"/>
<path d="M415.078 508.226C415.078 508.226 400.526 554.31 413.475 553.694C426.425 553.077 429.973 515.99 429.973 515.99L415.078 508.226Z" fill="#FFB9B9"/>
<path d="M363.498 670.503C363.498 670.503 356.966 663.038 353.233 673.303C349.5 683.567 339.236 696.632 339.236 696.632C339.236 696.632 316.84 721.827 332.703 722.76C348.567 723.693 370.963 700.364 370.963 700.364L397.092 676.102C397.092 676.102 388.432 655.012 384.363 654.826C380.295 654.639 381.228 679.835 363.498 670.503Z" fill="#2F2E41"/>
<path d="M424.153 747.956C424.153 747.956 417.577 749.875 418.066 741.917C418.066 741.917 394.292 754.488 400.824 763.819C407.356 773.151 414.822 782.483 414.822 782.483C414.822 782.483 449.349 802.079 452.148 797.413C454.948 792.747 454.948 783.416 453.081 779.683C451.215 775.95 441.883 769.418 444.683 763.819C447.482 758.22 443.75 743.29 439.084 743.29C434.418 743.29 424.153 747.956 424.153 747.956Z" fill="#2F2E41"/>
<path d="M388.525 266.051C388.525 266.051 397.53 246.539 414.791 251.042C432.052 255.545 441.808 262.299 442.559 269.053C443.309 275.808 442.183 285.939 442.183 285.939C442.183 285.939 440.307 272.055 428.3 275.057C416.292 278.059 397.53 275.807 397.53 275.807L394.528 302.824C394.528 302.824 391.151 297.946 387.399 300.948C383.647 303.95 376.517 272.055 388.525 266.051Z" fill="#2F2E41"/>
<path d="M471.278 363.026C471.278 363.026 448.882 423.682 450.748 431.147C452.615 438.612 450.748 439.545 447.949 441.412C445.149 443.278 437.684 462.874 437.684 462.874C437.684 462.874 433.018 474.072 429.286 476.872C425.553 479.671 425.553 487.137 425.553 487.137C425.553 487.137 416.221 496.468 418.088 498.335C419.954 500.201 419.954 503 416.221 505.8C412.489 508.599 408.756 512.332 410.622 513.265C412.489 514.198 425.553 524.463 429.286 523.53C433.018 522.597 427.419 518.864 432.085 516.998C436.751 515.131 439.551 512.332 437.684 511.399C435.818 510.466 430.219 510.466 435.818 508.599C441.417 506.733 461.013 494.602 467.545 479.671C474.078 464.741 505.375 374.407 486.46 361.718C486.46 361.718 478.743 351.828 471.278 363.026Z" fill="#D0CDE1"/>
<path d="M367.697 352.761L367.318 352.919C363.793 354.389 360.68 356.696 358.247 359.64C355.814 362.584 354.136 366.077 353.357 369.816C351.32 379.569 349.315 393.676 350.9 406.885C353.699 430.214 355.566 440.478 359.298 447.944C363.031 455.409 363.964 452.61 363.031 458.209C362.098 463.808 357.432 459.142 362.098 466.607C366.764 474.072 369.563 472.206 367.697 475.939C365.831 479.671 363.031 479.671 366.764 484.337C370.496 489.003 370.496 490.869 371.43 492.736C372.363 494.602 375.162 508.599 375.162 508.599C375.162 508.599 390.093 503.934 398.491 505.8C398.491 505.8 391.026 492.736 392.892 489.936C394.759 487.137 397.558 486.203 394.759 483.404C391.959 480.604 387.293 481.538 391.959 478.738C396.625 475.939 388.227 447.011 388.227 447.011L367.697 352.761Z" fill="#D0CDE1"/>
<path d="M189 666H155L170.5 141L189 666Z" fill="#3F3D56"/>
<path d="M173.5 240.5L210 190L173 253L169 246L173.5 240.5Z" fill="#3F3D56"/>
<path d="M169.5 291.5L133 241L170 304L174 297L169.5 291.5Z" fill="#3F3D56"/>
<path d="M188.227 392.92L171.773 402.42L176.773 411.08L193.227 401.58L188.227 392.92Z" fill="#3F3D56"/>
</g>
<defs>
<clipPath id="clip0">
<rect width="849" height="798.131" fill="white"/>
</clipPath>
</defs>
</svg>
