<svg width="1086" height="688" viewBox="0 0 1086 688" fill="none" xmlns="http://www.w3.org/2000/svg">
<g clip-path="url(#clip0)">
<rect width="1086" height="688" fill="white"/>
<path opacity="0.5" d="M222.68 22.742C220.26 19.9522 215.26 22.9794 217.52 25.8709C218.11 26.6256 218.76 27.3548 219.37 28.0586C226.82 36.5381 230.68 46.9424 234.01 57.1856C234.82 59.7295 235.61 62.3751 234.68 64.8172C236.01 58.1693 235.15 51.3009 233.14 44.7717C231.13 38.2425 228 32.044 224.77 25.8794C224.205 24.7743 223.504 23.7228 222.68 22.742Z" fill="#6C63FF"/>
<path d="M174.33 40.6846C169.33 40.5574 168.67 47.0188 173.67 47.3579C174.98 47.4512 176.31 47.4767 177.57 47.5021C192.96 47.8582 207.52 52.5898 221.51 57.6775C224.94 58.924 228.51 60.3231 230.51 62.9941C224.2 56.7956 215.9 52.2591 207.07 48.9182C198.24 45.5773 188.83 43.3895 179.43 41.346C177.763 40.9719 176.053 40.7501 174.33 40.6846V40.6846Z" fill="#6C63FF"/>
<path opacity="0.2" d="M175.72 56.5412C172.54 56.6429 173.26 60.4672 176.46 60.4926C177.29 60.4926 178.13 60.4926 178.92 60.4333C188.63 60.1026 198.58 62.3751 208.22 64.8765C210.59 65.487 213.09 66.1824 214.81 67.6832C209.69 64.3307 203.887 61.8043 197.69 60.2298C191.583 58.6928 185.354 57.531 179.05 56.7532C177.951 56.5893 176.836 56.5183 175.72 56.5412Z" fill="#6C63FF"/>
<path opacity="0.5" d="M240.68 127.693C241.58 130.279 245.78 128.736 245.01 126.107C244.81 125.42 244.56 124.742 244.33 124.097C241.54 116.203 241.67 107.469 242.13 98.9302C242.25 96.8273 242.42 94.6056 243.71 92.8165C241.15 97.8551 239.706 103.25 239.45 108.732C239.2 114.129 239.418 119.533 240.1 124.903C240.184 125.847 240.378 126.781 240.68 127.693V127.693Z" fill="#6C63FF"/>
<path opacity="0.2" d="M181.5 19.1552C179.59 18.8753 179.45 21.2326 181.35 21.5972C181.85 21.6905 182.35 21.7584 182.83 21.8262C188.68 22.6741 194.28 25.0993 199.67 27.6346C201.058 28.1698 202.265 28.9921 203.18 30.0259C200.625 27.4698 197.537 25.3342 194.07 23.7256C190.657 22.1461 187.11 20.7828 183.46 19.647C182.828 19.427 182.171 19.2622 181.5 19.1552V19.1552Z" fill="#6C63FF"/>
<path d="M152 81.7083C147.15 83.8282 151.25 89.6366 156.23 87.7118C157.53 87.203 158.8 86.6349 160.02 86.1007C174.83 79.5884 192.02 77.1888 209.02 75.3402C213.17 74.8908 217.6 74.4923 221.44 75.8829C210.97 73.3815 199.81 73.1695 189.03 74.2379C178.25 75.3063 167.76 77.5873 157.38 80.0039C155.524 80.418 153.722 80.989 152 81.7083V81.7083Z" fill="#6C63FF"/>
<path opacity="0.5" d="M165.85 104.323C162.37 107.079 167.85 110.335 171.46 107.715C172.46 107.028 173.33 106.299 174.2 105.603C184.82 97.124 198.85 91.1375 212.82 85.5919C216.25 84.2267 230.37 82.8446 234.13 82.9209C224.29 83.6671 204.19 86.3127 195.25 89.7045C186.485 93.2401 178.013 97.2742 169.89 101.779C168.452 102.517 167.099 103.369 165.85 104.323V104.323Z" fill="#6C63FF"/>
<path d="M190.71 140.412C189.71 144.355 196.34 144.414 197.58 140.471C197.9 139.445 198.16 138.402 198.41 137.41C201.48 125.344 208.99 113.625 216.77 102.33C218.68 99.5577 229.36 91.6124 232.51 89.8571C224.91 95.2162 210.12 107.054 205.08 114.193C200.238 121.327 195.968 128.729 192.3 136.35C191.624 137.66 191.092 139.019 190.71 140.412V140.412Z" fill="#6C63FF"/>
<path d="M240.74 1.85705C238.36 -2.24702 231.58 1.12782 233.74 5.33364C234.3 6.43598 234.93 7.51287 235.53 8.53889C242.84 21.08 245.35 35.5715 247.23 49.8255C247.69 53.3191 248.09 57.05 246.41 60.2638C249.47 51.4875 249.88 42.1177 248.82 33.0446C247.76 23.9716 245.27 15.1275 242.63 6.36814C242.179 4.81482 241.546 3.30361 240.74 1.85705V1.85705Z" fill="#6C63FF"/>
<path d="M202.93 8.8356C203.054 8.8999 203.195 8.93772 203.34 8.94583C203.61 8.94583 203.79 8.71688 203.9 8.51338C204.49 7.41952 204.15 5.96953 205.07 5.12158C205.987 6.04947 206.732 7.09021 207.28 8.20811L210.76 7.36017C210.927 7.93393 210.955 8.53049 210.841 9.11357C210.728 9.69665 210.475 10.2541 210.1 10.752C210.714 10.9762 211.27 11.2987 211.74 11.7017C211.976 11.9018 212.142 12.154 212.218 12.4297C212.294 12.7055 212.277 12.9937 212.17 13.2619C211.365 13.4272 210.537 13.4957 209.71 13.4654C209.839 14.7639 209.751 16.0712 209.45 17.349C209.442 17.4439 209.411 17.5364 209.359 17.621C209.308 17.7055 209.237 17.7803 209.15 17.8408C208.9 17.9765 208.56 17.8408 208.3 17.7221C207.1 17.1019 206.113 16.2245 205.44 15.1783L204.14 17.7984C204.049 18.0692 203.847 18.3037 203.57 18.4598C203.372 18.5181 203.157 18.5179 202.959 18.4595C202.761 18.401 202.592 18.2876 202.48 18.1376C202.262 17.8373 202.132 17.4971 202.1 17.1455L201.61 14.6525C201.604 14.5221 201.548 14.397 201.45 14.2964C201.304 14.2026 201.123 14.1574 200.94 14.1692C199.707 14.1692 198.477 14.1692 197.25 14.1692C197.04 13.6095 197.69 13.1008 198.32 12.8634C198.95 12.6259 199.69 12.4563 200.01 11.9391C200.65 10.8792 199.01 9.39524 199.7 8.50489C200.52 7.36016 201.86 8.38618 202.93 8.8356Z" fill="#6C63FF"/>
<path opacity="0.5" d="M270.15 22.742C272.57 19.9522 277.57 22.9794 275.31 25.8709C274.72 26.6256 274.07 27.3548 273.46 28.0586C266.01 36.5381 262.14 46.9424 258.82 57.1856C258 59.7295 257.21 62.3751 258.14 64.8172C256.81 58.1693 257.68 51.3009 259.69 44.7717C261.7 38.2425 264.83 32.0016 268.06 25.837C268.628 24.7466 269.329 23.7094 270.15 22.742Z" fill="#6C63FF"/>
<path d="M318.49 40.6846C323.49 40.5574 324.16 47.0188 319.15 47.3579C317.84 47.4512 316.52 47.4767 315.26 47.5021C299.86 47.8582 285.31 52.5898 271.32 57.6775C267.89 58.924 264.32 60.3231 262.32 62.9941C268.62 56.7956 276.92 52.2591 285.76 48.9182C294.6 45.5773 304 43.398 313.36 41.3545C315.037 40.9757 316.757 40.7511 318.49 40.6846V40.6846Z" fill="#6C63FF"/>
<path opacity="0.5" d="M317.11 56.5412C320.28 56.6429 319.57 60.4672 316.37 60.4926C315.54 60.4926 314.7 60.4926 313.9 60.4333C304.19 60.1026 294.25 62.3751 284.61 64.8765C282.24 65.487 279.74 66.1824 278.02 67.6832C283.14 64.3307 288.943 61.8043 295.14 60.2298C301.247 58.6919 307.476 57.5301 313.78 56.7532C314.879 56.5893 315.994 56.5183 317.11 56.5412V56.5412Z" fill="#6C63FF"/>
<path opacity="0.2" d="M311.32 19.1552C313.24 18.8753 313.38 21.2326 311.48 21.5972C310.98 21.6905 310.48 21.7584 309.99 21.8262C304.14 22.6741 298.55 25.0993 293.16 27.6346C291.772 28.1698 290.565 28.9921 289.65 30.0259C292.203 27.468 295.292 25.3321 298.76 23.7256C302.17 22.1462 305.713 20.7829 309.36 19.647C309.993 19.4293 310.649 19.2645 311.32 19.1552V19.1552Z" fill="#6C63FF"/>
<path opacity="0.2" d="M261.58 132.585C261.15 134.196 258.52 133.433 258.87 131.737C258.96 131.305 259.07 130.889 259.18 130.482C260.52 125.581 260.03 120.265 259.36 115.075C259.309 113.782 258.879 112.521 258.11 111.403C259.909 114.396 261.041 117.644 261.45 120.985C261.851 124.267 261.968 127.568 261.8 130.864C261.793 131.442 261.719 132.019 261.58 132.585V132.585Z" fill="#6C63FF"/>
<path opacity="0.5" d="M310.1 121.927C311.59 124.072 307.93 123.919 306.32 121.774C305.89 121.214 305.51 120.655 305.13 120.078C300.59 113.523 293.67 107.037 286.71 100.77C285.058 99.1441 283.13 97.7352 280.99 96.5898C286.443 99.7316 291.473 103.371 295.99 107.444C300.46 111.412 304.41 115.541 308.28 119.671C308.947 120.387 309.555 121.14 310.1 121.927V121.927Z" fill="#6C63FF"/>
<path opacity="0.2" d="M177.32 121.927C175.83 124.072 179.5 123.919 181.11 121.774C181.53 121.214 181.92 120.655 182.29 120.078C186.83 113.523 193.75 107.037 200.72 100.77C202.368 99.1443 204.293 97.7354 206.43 96.5898C200.981 99.736 195.951 103.375 191.43 107.444C186.96 111.412 183.01 115.541 179.15 119.671C178.48 120.386 177.869 121.14 177.32 121.927V121.927Z" fill="#6C63FF"/>
<path opacity="0.2" d="M225.88 132.585C226.31 134.196 228.93 133.433 228.59 131.737C228.5 131.305 228.38 130.889 228.27 130.482C226.94 125.581 227.42 120.265 228.1 115.075C228.152 113.784 228.578 112.523 229.34 111.403C227.541 114.396 226.408 117.644 226 120.985C225.596 124.266 225.475 127.568 225.64 130.864C225.654 131.443 225.734 132.019 225.88 132.585V132.585Z" fill="#6C63FF"/>
<path opacity="0.2" d="M296 35.2662C297.91 34.9779 298.05 37.3436 296.15 37.6998C295.65 37.7931 295.15 37.8694 294.67 37.9372C288.82 38.7852 283.22 41.2103 277.83 43.7372C276.446 44.2778 275.241 45.0991 274.32 46.1284C276.876 43.575 279.964 41.4422 283.43 39.8366C286.845 38.2579 290.391 36.8919 294.04 35.7495C294.672 35.5321 295.329 35.3702 296 35.2662V35.2662Z" fill="#6C63FF"/>
<path opacity="0.2" d="M278.18 3.63773C279.83 2.78978 281 4.91813 279.4 5.85087C278.97 6.09678 278.54 6.32572 278.12 6.53771C273.07 9.17483 268.95 13.2026 265.07 17.2558C264.022 18.1961 263.263 19.3405 262.86 20.5882C264.108 17.4098 266.034 14.4525 268.54 11.8628C270.997 9.31714 273.67 6.92797 276.54 4.71462C277.045 4.31223 277.594 3.95163 278.18 3.63773V3.63773Z" fill="#6C63FF"/>
<path d="M340.83 81.7083C345.68 83.8282 341.58 89.6366 336.6 87.7118C335.3 87.203 334.02 86.6349 332.81 86.1007C317.99 79.5884 300.81 77.1888 283.81 75.3402C279.66 74.8908 275.23 74.4923 271.39 75.8829C281.86 73.3815 293.01 73.1695 303.8 74.2379C314.59 75.3063 325.06 77.5873 335.45 80.0039C337.305 80.4197 339.108 80.9906 340.83 81.7083V81.7083Z" fill="#6C63FF"/>
<path opacity="0.5" d="M327 104.323C330.48 107.079 325 110.335 321.39 107.715C320.39 107.028 319.52 106.299 318.65 105.604C308 97.1156 294 91.1036 280 85.558C276.57 84.1928 262.45 82.8107 258.68 82.887C268.53 83.6332 288.63 86.2788 297.57 89.6706C306.335 93.2062 314.807 97.2403 322.93 101.745C324.38 102.493 325.743 103.356 327 104.323V104.323Z" fill="#6C63FF"/>
<path d="M285.92 144.914C286.35 148.934 279.74 148.306 279.1 144.245C278.93 143.193 278.83 142.133 278.72 141.124C277.46 128.82 271.72 116.398 265.72 104.366C264.23 101.415 254.81 92.3925 251.94 90.3235C258.69 96.4457 271.61 109.758 275.56 117.382C279.312 124.972 282.456 132.768 284.97 140.717C285.44 142.088 285.758 143.493 285.92 144.914V144.914Z" fill="#6C63FF"/>
<path d="M289.89 8.8356C289.767 8.9012 289.625 8.93912 289.48 8.94583C289.22 8.94583 289.04 8.71688 288.93 8.51338C288.33 7.41952 288.67 5.96953 287.76 5.12158C286.843 6.04947 286.098 7.09021 285.55 8.20811L282.06 7.36017C281.895 7.93411 281.869 8.5303 281.982 9.11309C282.096 9.69587 282.347 10.2533 282.72 10.752C282.108 10.9783 281.551 11.3005 281.08 11.7017C280.848 11.9038 280.685 12.1564 280.611 12.4317C280.537 12.707 280.554 12.9942 280.66 13.2619C281.465 13.4272 282.293 13.4957 283.12 13.4654C282.986 14.7638 283.074 16.0718 283.38 17.349C283.388 17.4439 283.419 17.5364 283.471 17.621C283.522 17.7055 283.593 17.7803 283.68 17.8408C283.93 17.9765 284.27 17.8408 284.53 17.7221C285.725 17.0961 286.71 16.2201 287.39 15.1783L288.69 17.7984C288.774 18.0724 288.978 18.309 289.26 18.4598C289.458 18.5181 289.673 18.5179 289.871 18.4595C290.069 18.401 290.238 18.2876 290.35 18.1376C290.564 17.8356 290.694 17.4963 290.73 17.1455L291.22 14.6525C291.226 14.5221 291.282 14.397 291.38 14.2964C291.526 14.2026 291.707 14.1574 291.89 14.1692C293.123 14.1692 294.353 14.1692 295.58 14.1692C295.79 13.6095 295.14 13.1008 294.51 12.8634C293.88 12.6259 293.13 12.4563 292.82 11.9391C292.18 10.8792 293.82 9.39524 293.13 8.50489C292.31 7.36016 291 8.38618 289.89 8.8356Z" fill="#6C63FF"/>
<path opacity="0.2" d="M300.4 130.44C300.275 130.502 300.134 130.537 299.99 130.542C299.72 130.542 299.54 130.313 299.43 130.109C298.84 129.024 299.18 127.608 298.27 126.717C297.34 127.661 296.591 128.723 296.05 129.863L292.57 128.956C292.404 129.53 292.376 130.126 292.49 130.709C292.603 131.292 292.855 131.85 293.23 132.348C292.617 132.569 292.06 132.889 291.59 133.289C291.357 133.491 291.193 133.743 291.117 134.018C291.042 134.293 291.056 134.581 291.16 134.849C291.964 135.017 292.792 135.089 293.62 135.061C293.491 136.357 293.579 137.661 293.88 138.936C293.902 139.129 294.009 139.308 294.18 139.437C294.44 139.572 294.77 139.437 295.03 139.309C296.232 138.691 297.219 137.814 297.89 136.766L299.19 139.386C299.284 139.655 299.49 139.887 299.77 140.039C299.965 140.099 300.179 140.1 300.375 140.043C300.572 139.986 300.739 139.874 300.85 139.725C301.065 139.423 301.199 139.084 301.24 138.733L301.72 136.231C301.726 136.101 301.782 135.976 301.88 135.875C302.03 135.783 302.215 135.741 302.4 135.757C303.62 135.757 304.85 135.714 306.08 135.757C306.29 135.205 305.64 134.688 305.01 134.451C304.38 134.213 303.64 134.044 303.32 133.526C302.68 132.475 304.32 130.983 303.63 130.135C302.81 128.931 301.47 129.99 300.4 130.44Z" fill="#6C63FF"/>
<path d="M329.91 48.9097C329.787 48.9753 329.645 49.0105 329.5 49.0114C329.23 49.0114 329.05 48.791 328.94 48.5875C328.35 47.4936 328.69 46.0436 327.77 45.1957C326.847 46.1447 326.101 47.2086 325.56 48.35L322.08 47.4343C321.914 48.0081 321.886 48.6045 322 49.1875C322.113 49.7705 322.365 50.328 322.74 50.8261C322.129 51.0503 321.573 51.3696 321.1 51.7673C320.864 51.9693 320.699 52.223 320.623 52.5C320.547 52.777 320.563 53.0664 320.67 53.336C321.475 53.5013 322.303 53.5698 323.13 53.5395C323.001 54.838 323.089 56.1453 323.39 57.4231C323.398 57.518 323.429 57.6105 323.481 57.6951C323.532 57.7796 323.603 57.8544 323.69 57.9149C323.94 58.0506 324.28 57.9149 324.54 57.7962C325.74 57.176 326.727 56.2986 327.4 55.2523L328.7 57.8725C328.791 58.1433 328.993 58.3778 329.27 58.5339C329.468 58.5906 329.683 58.5897 329.88 58.5314C330.078 58.473 330.246 58.3605 330.36 58.2117C330.578 57.9114 330.708 57.5712 330.74 57.2196L331.23 54.6757C331.238 54.5483 331.294 54.4264 331.39 54.3281C331.536 54.2343 331.717 54.1891 331.9 54.2009C333.13 54.2009 334.36 54.2009 335.59 54.2009C335.8 53.6497 335.15 53.1325 334.52 52.9035C333.89 52.6746 333.15 52.4965 332.83 51.9793C332.19 50.9193 333.83 49.4354 333.14 48.5875C332.32 47.4258 331 48.4772 329.91 48.9097Z" fill="#6C63FF"/>
<path d="M211.93 142.633C211.758 142.722 211.561 142.772 211.36 142.778C210.99 142.778 210.74 142.464 210.58 142.184C209.76 140.658 210.23 138.682 208.96 137.402C207.668 138.72 206.628 140.202 205.88 141.794L201 140.488C200.774 141.286 200.739 142.115 200.897 142.924C201.055 143.734 201.403 144.509 201.92 145.203C201.065 145.517 200.288 145.966 199.63 146.526C199.307 146.807 199.081 147.158 198.977 147.541C198.873 147.924 198.895 148.323 199.04 148.696C200.161 148.93 201.316 149.03 202.47 148.993C202.29 150.799 202.411 152.617 202.83 154.394C202.841 154.527 202.884 154.657 202.956 154.775C203.028 154.893 203.128 154.997 203.25 155.081C203.6 155.276 204.07 155.081 204.43 154.92C206.112 154.04 207.491 152.8 208.43 151.325L210.24 154.98C210.374 155.354 210.657 155.677 211.04 155.895C211.313 155.978 211.612 155.979 211.886 155.899C212.16 155.819 212.394 155.662 212.55 155.454C212.855 155.033 213.04 154.557 213.09 154.064L213.76 150.587C213.777 150.408 213.857 150.236 213.99 150.095C214.194 149.959 214.452 149.895 214.71 149.917C216.42 149.917 218.13 149.866 219.84 149.875C220.14 149.103 219.23 148.391 218.35 148.06C217.47 147.73 216.44 147.492 216 146.771C215.1 145.304 217.41 143.261 216.43 141.989C215.3 140.539 213.43 142.006 211.93 142.633Z" fill="#6C63FF"/>
<path d="M162.85 51.3603C162.675 51.4498 162.475 51.4995 162.27 51.5044C161.91 51.5044 161.65 51.1907 161.5 50.9108C160.67 49.3845 161.15 47.4088 159.88 46.1284C158.585 47.446 157.542 48.9283 156.79 50.5208L151.94 49.2404C151.71 50.0377 151.671 50.8663 151.828 51.6764C151.984 52.4866 152.332 53.2616 152.85 53.955C151.998 54.2696 151.224 54.7185 150.57 55.2778C150.245 55.5582 150.017 55.909 149.911 56.2919C149.805 56.6747 149.826 57.0748 149.97 57.4485C151.091 57.6825 152.246 57.7824 153.4 57.7453C153.218 59.5515 153.342 61.3706 153.77 63.1467C153.758 63.3085 153.807 63.4694 153.91 63.6059C154.013 63.7425 154.165 63.8477 154.343 63.9063C154.521 63.9648 154.717 63.9738 154.902 63.9317C155.086 63.8897 155.25 63.7989 155.37 63.6725C157.052 62.7919 158.431 61.5521 159.37 60.0772L161.17 63.7318C161.299 64.1109 161.587 64.4367 161.98 64.6476C162.253 64.7286 162.551 64.7291 162.825 64.6491C163.099 64.5691 163.333 64.4133 163.49 64.2067C163.794 63.7851 163.975 63.3086 164.02 62.816L164.7 59.3395C164.71 59.1599 164.787 58.9877 164.92 58.8476C165.125 58.7143 165.383 58.6536 165.64 58.678C167.35 58.678 169.06 58.6187 170.78 58.6272C171.07 57.8555 170.16 57.1433 169.29 56.8126C168.42 56.4819 167.37 56.2444 166.93 55.5237C166.04 54.0567 168.35 52.0132 167.37 50.7413C166.21 49.2658 164.34 50.7328 162.85 51.3603Z" fill="#6C63FF"/>
<path opacity="0.2" d="M311.79 107.884C311.7 107.933 311.596 107.959 311.49 107.961C311.29 107.961 311.16 107.791 311.07 107.647C310.63 106.799 310.89 105.79 310.21 105.103C309.526 105.805 308.973 106.591 308.57 107.435L305.99 106.757C305.867 107.187 305.847 107.634 305.931 108.071C306.015 108.508 306.202 108.926 306.48 109.301C306.027 109.463 305.616 109.699 305.27 109.996C305.097 110.145 304.975 110.331 304.919 110.534C304.862 110.738 304.873 110.95 304.95 111.149C305.545 111.274 306.157 111.329 306.77 111.31C306.677 112.269 306.744 113.234 306.97 114.176C306.975 114.247 306.997 114.315 307.035 114.378C307.073 114.441 307.126 114.496 307.19 114.541C307.294 114.576 307.408 114.587 307.519 114.572C307.63 114.558 307.734 114.517 307.82 114.456C308.708 113.985 309.438 113.328 309.94 112.548L310.94 114.49C311.006 114.689 311.155 114.861 311.36 114.973C311.506 115.018 311.665 115.019 311.812 114.978C311.959 114.936 312.085 114.854 312.17 114.744C312.329 114.52 312.425 114.268 312.45 114.007L312.81 112.158C312.818 112.062 312.86 111.971 312.93 111.895C312.982 111.858 313.043 111.831 313.108 111.815C313.174 111.799 313.242 111.794 313.31 111.802H316.04C316.19 111.395 315.71 111.013 315.24 110.844C314.77 110.674 314.24 110.539 313.99 110.157C313.52 109.377 314.75 108.291 314.23 107.613C313.71 106.935 312.58 107.545 311.79 107.884Z" fill="#6C63FF"/>
<path opacity="0.2" d="M245.11 140.531C245.017 140.572 244.915 140.598 244.81 140.607C244.714 140.588 244.626 140.549 244.554 140.492C244.482 140.436 244.429 140.364 244.4 140.285C243.96 139.479 244.21 138.428 243.53 137.741C242.844 138.441 242.29 139.228 241.89 140.073L239.32 139.394C239.198 139.817 239.178 140.257 239.26 140.686C239.343 141.116 239.526 141.527 239.8 141.896C239.351 142.068 238.941 142.307 238.59 142.6C238.417 142.748 238.295 142.934 238.239 143.138C238.182 143.341 238.193 143.554 238.27 143.753C238.864 143.879 239.478 143.931 240.09 143.905C239.996 144.867 240.063 145.835 240.29 146.78C240.296 146.85 240.319 146.918 240.356 146.981C240.394 147.044 240.446 147.099 240.51 147.145C240.7 147.246 240.95 147.145 241.14 147.06C242.028 146.589 242.758 145.932 243.26 145.152L244.26 147.094C244.326 147.293 244.475 147.465 244.68 147.577C244.827 147.619 244.986 147.619 245.133 147.576C245.279 147.533 245.405 147.45 245.49 147.34C245.649 147.115 245.745 146.863 245.77 146.602L246.13 144.753C246.138 144.66 246.18 144.571 246.25 144.499C246.357 144.427 246.494 144.393 246.63 144.406C247.543 144.406 248.453 144.406 249.36 144.406C249.51 143.999 249.03 143.617 248.57 143.439C248.11 143.261 247.57 143.142 247.32 142.752C246.84 141.972 248.07 140.887 247.55 140.208C247.03 139.53 245.91 140.191 245.11 140.531Z" fill="#6C63FF"/>
<path opacity="0.5" d="M180.58 26.2779C180.487 26.321 180.385 26.347 180.28 26.3542C180.184 26.3357 180.096 26.2961 180.024 26.2396C179.952 26.183 179.899 26.1115 179.87 26.032C179.43 25.1841 179.68 24.175 179.01 23.4882C178.317 24.1842 177.763 24.972 177.37 25.82L174.79 25.1417C174.66 25.5714 174.637 26.0193 174.721 26.4571C174.805 26.8949 174.996 27.3131 175.28 27.6855C174.827 27.8559 174.413 28.0944 174.06 28.3893C173.887 28.5383 173.767 28.7251 173.712 28.9287C173.658 29.1323 173.671 29.3448 173.75 29.5425C174.344 29.6699 174.958 29.7213 175.57 29.6951C175.472 30.6561 175.536 31.624 175.76 32.5697C175.766 32.6399 175.789 32.7083 175.826 32.7709C175.864 32.8335 175.916 32.8891 175.98 32.9343C176.17 33.0361 176.42 32.9343 176.61 32.8495C177.501 32.3815 178.232 31.7237 178.73 30.9416L179.73 32.8834C179.798 33.0839 179.951 33.256 180.16 33.3668C180.305 33.4083 180.463 33.4075 180.608 33.3645C180.753 33.3215 180.877 33.2387 180.96 33.1293C181.119 32.9051 181.215 32.6526 181.24 32.3916L181.6 30.5431C181.606 30.4495 181.649 30.3602 181.72 30.2887C181.827 30.2164 181.964 30.1829 182.1 30.1954C183.013 30.1954 183.923 30.1954 184.83 30.1954C184.99 29.7884 184.5 29.4068 184.04 29.2288C183.58 29.0507 183.04 28.932 182.79 28.5419C182.31 27.7618 183.54 26.6765 183.02 25.9981C182.5 25.3197 181.38 25.9387 180.58 26.2779Z" fill="#6C63FF"/>
<path opacity="0.5" d="M214.93 90.6542C214.837 90.7036 214.73 90.73 214.62 90.7305C214.43 90.7305 214.29 90.5694 214.21 90.4168C213.77 89.6112 214.02 88.5598 213.35 87.8729C212.66 88.5712 212.107 89.3584 211.71 90.2048L209.13 89.5264C209.005 89.9565 208.984 90.4037 209.068 90.8408C209.152 91.278 209.34 91.6962 209.62 92.0703C209.169 92.2396 208.759 92.4782 208.41 92.7741C208.236 92.9222 208.114 93.1085 208.057 93.3122C208.001 93.5158 208.012 93.7288 208.09 93.9273C208.684 94.0543 209.298 94.1057 209.91 94.0799C209.812 95.0409 209.876 96.0088 210.1 96.9545C210.117 97.095 210.196 97.225 210.32 97.3191C210.51 97.4208 210.76 97.3191 210.95 97.2258C211.842 96.7626 212.574 96.1072 213.07 95.3264L214.07 97.2682C214.145 97.466 214.296 97.6364 214.5 97.7515C214.645 97.7946 214.804 97.7946 214.949 97.7514C215.094 97.7083 215.218 97.6246 215.3 97.5141C215.463 97.2906 215.562 97.038 215.59 96.7764L215.95 94.9279C215.951 94.8334 215.994 94.7427 216.07 94.6735C216.122 94.6364 216.183 94.6089 216.248 94.5929C216.314 94.5768 216.382 94.5725 216.45 94.5802C217.36 94.5802 218.27 94.5802 219.17 94.5802C219.33 94.1732 218.85 93.7916 218.38 93.6135C217.91 93.4355 217.38 93.3083 217.13 92.9267C216.66 92.1466 217.89 91.0612 217.36 90.3829C216.83 89.7045 215.72 90.3235 214.93 90.6542Z" fill="#6C63FF"/>
<path opacity="0.5" d="M190 65.5549C189.911 65.6044 189.807 65.631 189.7 65.6312C189.5 65.6312 189.37 65.4701 189.29 65.3175C188.85 64.5119 189.1 63.4605 188.42 62.7736C187.734 63.4739 187.18 64.2606 186.78 65.1055L184.21 64.4271C184.081 64.8565 184.057 65.3037 184.14 65.7411C184.222 66.1786 184.41 66.5971 184.69 66.971C184.241 67.1435 183.831 67.3818 183.48 67.6748C183.306 67.8229 183.184 68.0092 183.127 68.2129C183.071 68.4165 183.082 68.6295 183.16 68.828C183.754 68.9546 184.368 69.006 184.98 68.9806C184.886 69.942 184.953 70.9099 185.18 71.8552C185.186 71.9253 185.209 71.9937 185.246 72.0564C185.284 72.119 185.336 72.1746 185.4 72.2198C185.59 72.3215 185.84 72.2198 186.03 72.1265C186.922 71.6633 187.654 71.0079 188.15 70.2271L189.15 72.1689C189.216 72.368 189.365 72.5399 189.57 72.6522C189.717 72.6943 189.876 72.6939 190.023 72.6509C190.169 72.6079 190.295 72.5249 190.38 72.4148C190.539 72.1905 190.635 71.938 190.66 71.6771L191.02 69.8286C191.026 69.735 191.069 69.6457 191.14 69.5742C191.247 69.5018 191.384 69.4683 191.52 69.4809C192.427 69.4809 193.337 69.4809 194.25 69.4809C194.4 69.0739 193.92 68.6923 193.46 68.5142C193 68.3362 192.46 68.209 192.21 67.8274C191.73 67.0473 192.96 65.9619 192.44 65.2835C191.92 64.6052 190.8 65.2242 190 65.5549Z" fill="#6C63FF"/>
<path opacity="0.5" d="M297.06 71.4651C296.97 71.5134 296.866 71.5398 296.76 71.5414C296.56 71.5414 296.43 71.3803 296.34 71.2277C295.91 70.4221 296.16 69.3707 295.48 68.6838C294.794 69.3841 294.24 70.1709 293.84 71.0157L291.27 70.3373C291.148 70.7603 291.128 71.1997 291.21 71.6294C291.293 72.0591 291.476 72.4704 291.75 72.8388C291.296 73.0041 290.885 73.2432 290.54 73.5426C290.366 73.6907 290.244 73.877 290.187 74.0807C290.131 74.2843 290.142 74.4973 290.22 74.6958C290.815 74.8183 291.428 74.8696 292.04 74.8484C291.946 75.8098 292.013 76.7777 292.24 77.723C292.246 77.7931 292.269 77.8616 292.306 77.9242C292.344 77.9868 292.396 78.0424 292.46 78.0876C292.65 78.1893 292.9 78.0876 293.09 77.9943C293.977 77.5262 294.708 76.872 295.21 76.0949L296.21 78.0282C296.274 78.2305 296.423 78.4057 296.63 78.52C296.777 78.5622 296.936 78.5617 297.083 78.5187C297.229 78.4758 297.355 78.3927 297.44 78.2826C297.599 78.0583 297.695 77.8058 297.72 77.5449L298.08 75.6964C298.088 75.6005 298.13 75.5088 298.2 75.4335C298.309 75.365 298.445 75.3346 298.58 75.3487C299.487 75.3487 300.397 75.3487 301.31 75.3487C301.46 74.9417 300.98 74.5601 300.52 74.382C300.06 74.204 299.52 74.0768 299.27 73.6952C298.79 72.9151 300.02 71.8297 299.5 71.1514C298.98 70.473 297.86 71.1344 297.06 71.4651Z" fill="#6C63FF"/>
<path opacity="0.2" d="M245.11 66.53C245.021 66.5796 244.917 66.6061 244.81 66.6064C244.61 66.6064 244.48 66.4368 244.4 66.2926C243.96 65.4447 244.21 64.4356 243.53 63.7488C242.848 64.4516 242.295 65.2378 241.89 66.0806L239.32 65.4023C239.192 65.8317 239.169 66.2787 239.252 66.716C239.334 67.1534 239.521 67.5719 239.8 67.9461C239.35 68.1129 238.94 68.3486 238.59 68.6414C238.416 68.7914 238.294 68.9792 238.237 69.1841C238.181 69.3891 238.192 69.6033 238.27 69.8031C238.866 69.9213 239.478 69.9726 240.09 69.9558C239.997 70.9143 240.064 71.8793 240.29 72.8218C240.294 72.8924 240.315 72.9616 240.353 73.0245C240.391 73.0874 240.445 73.1426 240.51 73.1864C240.7 73.2967 240.95 73.1864 241.14 73.1016C242.031 72.6336 242.762 71.9758 243.26 71.1938L244.26 73.1356C244.326 73.3347 244.475 73.5066 244.68 73.6189C244.826 73.6649 244.985 73.6673 245.133 73.6257C245.28 73.584 245.406 73.5008 245.49 73.3899C245.649 73.1657 245.745 72.9132 245.77 72.6522L246.13 70.8037C246.138 70.7078 246.18 70.6161 246.25 70.5408C246.362 70.476 246.495 70.4433 246.63 70.4476C247.543 70.4476 248.453 70.4476 249.36 70.4476C249.51 70.0406 249.03 69.659 248.57 69.4894C248.11 69.3198 247.57 69.1841 247.32 68.8026C246.84 68.0224 248.07 66.9371 247.55 66.2587C247.03 65.5803 245.91 66.1993 245.11 66.53Z" fill="#6C63FF"/>
<path opacity="0.3" d="M228.81 72.542C228.72 72.5903 228.616 72.6167 228.51 72.6183C228.31 72.6183 228.18 72.4572 228.09 72.3046C227.65 71.4566 227.91 70.4476 227.23 69.7607C226.548 70.4636 225.995 71.2497 225.59 72.0926L223.01 71.4227C222.892 71.8464 222.874 72.2857 222.959 72.7152C223.043 73.1446 223.227 73.5556 223.5 73.9242C223.049 74.0896 222.638 74.3254 222.29 74.6195C222.116 74.7695 221.994 74.9572 221.937 75.1622C221.881 75.3671 221.892 75.5813 221.97 75.7812C222.566 75.8993 223.178 75.9506 223.79 75.9338C223.697 76.8952 223.764 77.8629 223.99 78.8083C223.996 78.8785 224.019 78.9469 224.056 79.0096C224.094 79.0722 224.146 79.1278 224.21 79.173C224.4 79.2747 224.65 79.173 224.84 79.0797C225.731 78.6117 226.462 77.9539 226.96 77.1718L227.96 79.1136C228.024 79.3159 228.173 79.4911 228.38 79.6054C228.527 79.6475 228.686 79.6471 228.833 79.6041C228.979 79.5611 229.105 79.4781 229.19 79.368C229.349 79.1437 229.445 78.8912 229.47 78.6303L229.83 76.7818C229.838 76.6859 229.88 76.5942 229.95 76.5189C230.06 76.4516 230.194 76.4187 230.33 76.4256C231.24 76.4256 232.15 76.4256 233.06 76.4256C233.21 76.0101 232.73 75.6285 232.27 75.459C231.81 75.2894 231.27 75.1537 231.02 74.7721C230.54 73.992 231.77 72.9066 231.25 72.2283C230.73 71.5499 229.61 72.2113 228.81 72.542Z" fill="#6C63FF"/>
<path opacity="0.2" d="M213.62 36.1904C213.527 36.2398 213.42 36.2663 213.31 36.2668C213.12 36.2668 212.98 36.1057 212.9 35.953C212.46 35.1051 212.71 34.096 212.04 33.4092C211.353 34.1057 210.799 34.8898 210.4 35.7326L207.82 35.0627C207.69 35.4924 207.667 35.9403 207.751 36.3781C207.835 36.8159 208.026 37.2341 208.31 37.6065C207.857 37.7739 207.444 38.0095 207.09 38.3018C206.919 38.4537 206.801 38.6419 206.746 38.8464C206.691 39.051 206.703 39.2642 206.78 39.4635C207.375 39.5863 207.988 39.6377 208.6 39.6162C208.503 40.5771 208.567 41.5449 208.79 42.4907C208.796 42.5609 208.819 42.6293 208.856 42.6919C208.894 42.7546 208.946 42.8101 209.01 42.8553C209.2 42.9571 209.45 42.8553 209.64 42.762C210.535 42.2978 211.267 41.6391 211.76 40.8542L212.76 42.796C212.832 42.9972 212.984 43.171 213.19 43.2878C213.347 43.3268 213.515 43.3166 213.664 43.259C213.813 43.2014 213.932 43.1002 214 42.974C214.163 42.7505 214.262 42.4979 214.29 42.2363L214.64 40.3878C214.648 40.2919 214.69 40.2002 214.76 40.1249C214.872 40.06 215.005 40.0273 215.14 40.0317C216.05 40.0317 216.96 40.0317 217.87 40.0317C218.03 39.6162 217.55 39.2346 217.08 39.065C216.61 38.8954 216.08 38.7597 215.83 38.3782C215.36 37.598 216.58 36.5127 216.06 35.8343C215.54 35.156 214.41 35.8174 213.62 36.1904Z" fill="#6C63FF"/>
<path opacity="0.3" d="M243.55 83.6755C243.455 83.7214 243.349 83.7476 243.24 83.7519C243.05 83.7519 242.91 83.5823 242.83 83.4297C242.39 82.6241 242.64 81.5811 241.97 80.8858C241.282 81.5853 240.729 82.3722 240.33 83.2177L237.75 82.5393C237.621 82.9691 237.599 83.4168 237.683 83.8545C237.767 84.2921 237.957 84.7103 238.24 85.0831C237.785 85.2474 237.371 85.4834 237.02 85.7785C236.85 85.929 236.732 86.1158 236.677 86.3188C236.623 86.5218 236.634 86.7336 236.71 86.9317C237.305 87.0573 237.917 87.1116 238.53 87.0928C238.433 88.051 238.497 89.0159 238.72 89.9589C238.737 90.0994 238.816 90.2293 238.94 90.3235C239.044 90.3591 239.158 90.37 239.269 90.3551C239.38 90.3401 239.484 90.2999 239.57 90.2387C240.461 89.7707 241.192 89.1129 241.69 88.3308L242.69 90.2726C242.758 90.4731 242.911 90.6452 243.12 90.7559C243.264 90.7983 243.421 90.7988 243.566 90.7573C243.711 90.7159 243.835 90.6349 243.92 90.527C244.083 90.3034 244.182 90.0509 244.21 89.7893L244.57 87.9407C244.567 87.8872 244.578 87.8338 244.604 87.7846C244.629 87.7355 244.667 87.692 244.716 87.6575C244.764 87.623 244.821 87.5985 244.883 87.5858C244.944 87.5732 245.008 87.5728 245.07 87.5846C245.98 87.5846 246.88 87.5846 247.79 87.5846C247.95 87.1776 247.47 86.796 247 86.6264C246.53 86.4568 246 86.3211 245.75 85.9396C245.28 85.1595 246.5 84.0741 245.98 83.3957C245.46 82.7174 244.34 83.3025 243.55 83.6755Z" fill="#6C63FF"/>
<g opacity="0.6">
<path opacity="0.5" d="M523.46 118.662C523.14 118.325 522.68 118.105 522.174 118.046C521.669 117.988 521.156 118.095 520.741 118.346C520.326 118.598 520.04 118.974 519.941 119.398C519.842 119.823 519.939 120.263 520.21 120.629C520.58 121.104 520.99 121.562 521.38 122.003C526.07 127.379 528.5 133.874 530.6 140.352C531.11 141.938 531.6 143.626 531.02 145.194C531.744 140.97 531.404 136.664 530.02 132.56C528.647 128.469 526.884 124.479 524.75 120.629C524.404 119.936 523.971 119.277 523.46 118.662V118.662Z" fill="#6C63FF"/>
<path opacity="0.6" d="M493 129.965C489.83 129.88 489.43 133.95 492.58 134.162C493.41 134.222 494.24 134.239 495.04 134.256C504.74 134.476 513.9 137.461 522.71 140.666C524.88 141.455 527.15 142.362 528.41 144.058C524.318 140.218 519.279 137.19 513.65 135.188C508.011 133.187 502.184 131.59 496.23 130.414C495.176 130.165 494.093 130.014 493 129.965V129.965Z" fill="#6C63FF"/>
<path opacity="0.2" d="M493.88 139.971C491.88 140.03 492.33 142.447 494.35 142.455C494.87 142.455 495.35 142.455 495.9 142.455C502.02 142.243 508.28 143.676 514.36 145.254C515.897 145.54 517.324 146.15 518.51 147.026C515.283 144.913 511.625 143.321 507.72 142.328C503.882 141.347 499.965 140.604 496 140.107C495.3 140.005 494.59 139.959 493.88 139.971V139.971Z" fill="#6C63FF"/>
<path opacity="0.5" d="M534.8 184.768C535.37 186.396 538.01 185.429 537.53 183.767C537.4 183.335 537.25 182.919 537.1 182.504C535.35 177.526 535.43 172.032 535.72 166.647C535.671 165.314 536.015 163.99 536.72 162.798C535.1 165.97 534.178 169.367 534 172.82C533.847 176.216 533.984 179.617 534.41 182.996C534.475 183.596 534.605 184.189 534.8 184.768V184.768Z" fill="#6C63FF"/>
<path opacity="0.2" d="M497.53 116.398C496.32 116.22 496.23 117.712 497.43 117.933L498.36 118.085C502.05 118.62 505.57 120.146 508.97 121.74C509.843 122.076 510.602 122.592 511.18 123.241C509.57 121.633 507.624 120.291 505.44 119.281C503.288 118.298 501.056 117.448 498.76 116.737C498.362 116.594 497.951 116.481 497.53 116.398Z" fill="#6C63FF"/>
<path opacity="0.6" d="M478.94 155.802C475.89 157.133 478.47 160.796 481.61 159.584C482.43 159.262 483.23 158.906 483.99 158.575C493.33 154.462 504.17 152.953 514.83 151.791C517.45 151.503 520.24 151.257 522.66 152.13C515.997 150.664 509.061 150.313 502.24 151.096C495.497 151.876 488.834 153.092 482.31 154.734C481.147 154.992 480.018 155.35 478.94 155.802Z" fill="#6C63FF"/>
<path opacity="0.5" d="M487.67 170.048C485.47 171.744 488.9 173.829 491.2 172.167C491.8 171.727 492.38 171.269 492.92 170.836C499.61 165.511 508.45 161.721 517.25 158.227C519.41 157.379 528.25 156.531 530.68 156.531C524.48 157.006 511.81 158.643 506.18 160.771C500.65 163.006 495.304 165.556 490.18 168.403C489.285 168.883 488.444 169.434 487.67 170.048Z" fill="#6C63FF"/>
<path opacity="0.6" d="M503.32 192.781C502.68 195.266 506.87 195.325 507.65 192.781C507.85 192.137 508.02 191.484 508.18 190.856C510.11 183.225 514.84 175.873 519.74 168.759C520.94 167.012 527.67 161.975 529.66 160.907C524.87 164.299 515.55 171.735 512.38 176.229C509.347 180.724 506.674 185.387 504.38 190.186C503.935 191.022 503.58 191.891 503.32 192.781Z" fill="#6C63FF"/>
<path opacity="0.6" d="M534.84 105.502C533.34 102.916 529.07 105.044 530.43 107.698C530.78 108.385 531.18 109.063 531.56 109.716C536.16 117.61 537.75 126.743 538.93 135.723C539.22 137.919 539.47 140.268 538.41 142.294C540.213 136.715 540.729 130.894 539.93 125.149C539.13 119.471 537.827 113.853 536.03 108.342C535.746 107.364 535.347 106.413 534.84 105.502V105.502Z" fill="#6C63FF"/>
<path opacity="0.6" d="M511 109.903C511.075 109.943 511.162 109.963 511.25 109.962C511.332 109.95 511.408 109.92 511.47 109.873C511.531 109.827 511.577 109.766 511.6 109.699C511.98 109.004 511.76 108.113 512.34 107.537C512.922 108.133 513.391 108.802 513.73 109.521L515.93 108.944C516.032 109.305 516.047 109.679 515.975 110.045C515.903 110.41 515.745 110.76 515.51 111.073C515.883 111.218 516.222 111.419 516.51 111.666C516.655 111.795 516.756 111.954 516.801 112.127C516.847 112.301 516.836 112.481 516.77 112.65C516.264 112.759 515.742 112.805 515.22 112.786C515.306 113.602 515.252 114.425 515.06 115.228C515.046 115.349 514.978 115.461 514.87 115.541C514.782 115.571 514.686 115.579 514.592 115.566C514.499 115.552 514.412 115.518 514.34 115.465C513.58 115.069 512.956 114.51 512.53 113.846L511.72 115.491C511.659 115.662 511.528 115.81 511.35 115.906C511.227 115.943 511.093 115.944 510.97 115.908C510.847 115.873 510.741 115.804 510.67 115.711C510.537 115.519 510.455 115.305 510.43 115.084L510.12 113.506C510.117 113.425 510.082 113.348 510.02 113.286C509.929 113.227 509.814 113.199 509.7 113.21C508.92 113.21 508.15 113.21 507.38 113.21C507.24 112.862 507.65 112.54 508.05 112.362C508.45 112.184 508.91 112.099 509.11 111.777C509.52 111.107 508.47 110.182 508.92 109.614C509.37 109.046 510.35 109.614 511 109.903Z" fill="#6C63FF"/>
<path opacity="0.5" d="M553.36 118.662C553.668 118.295 554.134 118.047 554.658 117.973C555.181 117.898 555.718 118.002 556.15 118.263C556.582 118.524 556.875 118.92 556.963 119.364C557.051 119.807 556.928 120.263 556.62 120.629C556.24 121.104 555.84 121.562 555.45 122.003C550.76 127.379 548.32 133.874 546.23 140.352C545.71 141.938 545.23 143.626 545.8 145.194C545.076 140.97 545.417 136.664 546.8 132.56C548.169 128.467 549.932 124.477 552.07 120.629C552.416 119.936 552.848 119.277 553.36 118.662V118.662Z" fill="#6C63FF"/>
<path opacity="0.6" d="M583.82 129.965C586.98 129.88 587.39 133.95 584.23 134.162C583.41 134.222 582.57 134.239 581.78 134.256C572.08 134.476 562.91 137.461 554.1 140.666C551.94 141.455 549.67 142.362 548.41 144.058C552.502 140.218 557.541 137.19 563.17 135.188C568.806 133.188 574.63 131.591 580.58 130.414C581.638 130.165 582.724 130.014 583.82 129.965V129.965Z" fill="#6C63FF"/>
<path opacity="0.5" d="M583 139.971C585 140.03 584.54 142.447 582.53 142.455C582 142.455 581.48 142.455 580.98 142.455C574.86 142.243 568.6 143.676 562.52 145.254C560.983 145.538 559.555 146.148 558.37 147.026C561.596 144.911 565.254 143.319 569.16 142.328C573.005 141.357 576.929 140.626 580.9 140.14C581.592 140.029 582.295 139.972 583 139.971V139.971Z" fill="#6C63FF"/>
<path opacity="0.2" d="M579.3 116.398C580.51 116.22 580.6 117.712 579.4 117.933L578.46 118.085C574.78 118.62 571.25 120.146 567.86 121.74C566.987 122.076 566.228 122.592 565.65 123.241C567.257 121.633 569.199 120.291 571.38 119.281C573.536 118.299 575.772 117.449 578.07 116.737C578.467 116.593 578.879 116.48 579.3 116.398V116.398Z" fill="#6C63FF"/>
<path opacity="0.2" d="M548 187.855C547.73 188.864 546.08 188.363 546.3 187.337C546.3 187.066 546.43 186.803 546.5 186.549C547.34 183.462 547.03 180.113 546.61 176.84C546.576 176.027 546.305 175.235 545.82 174.533C546.951 176.41 547.663 178.449 547.92 180.545C548.171 182.613 548.248 184.693 548.15 186.769C548.145 187.134 548.094 187.498 548 187.855V187.855Z" fill="#6C63FF"/>
<path opacity="0.5" d="M578.53 181.139C579.47 182.487 577.16 182.394 576.15 181.045C575.88 180.689 575.64 180.333 575.4 179.994C572.54 175.865 568.18 171.777 563.79 167.834C562.754 166.809 561.544 165.921 560.2 165.197C563.625 167.18 566.787 169.471 569.63 172.032C572.45 174.576 574.93 177.119 577.37 179.731C577.794 180.178 578.181 180.648 578.53 181.139V181.139Z" fill="#6C63FF"/>
<path opacity="0.2" d="M494.89 181.139C493.95 182.487 496.26 182.394 497.28 181.045C497.54 180.689 497.79 180.333 498.02 179.994C500.88 175.865 505.24 171.777 509.63 167.834C510.67 166.809 511.883 165.921 513.23 165.197C509.801 167.18 506.636 169.471 503.79 172.032C500.98 174.576 498.49 177.119 496.05 179.731C495.626 180.178 495.239 180.648 494.89 181.139Z" fill="#6C63FF"/>
<path opacity="0.2" d="M525.48 187.855C525.75 188.864 527.4 188.363 527.19 187.337C527.13 187.066 527.06 186.803 526.99 186.549C526.15 183.462 526.45 180.113 526.88 176.84C526.906 176.027 527.174 175.234 527.66 174.533C526.529 176.41 525.817 178.449 525.56 180.545C525.307 182.612 525.234 184.693 525.34 186.769C525.347 187.134 525.394 187.497 525.48 187.855Z" fill="#6C63FF"/>
<path opacity="0.2" d="M569.67 126.548C570.87 126.37 570.96 127.854 569.76 128.083C569.45 128.142 569.13 128.184 568.83 128.227C565.14 128.761 561.62 130.287 558.22 131.89C557.349 132.229 556.59 132.744 556.01 133.391C557.62 131.78 559.566 130.435 561.75 129.422C563.901 128.439 566.134 127.589 568.43 126.879C568.829 126.734 569.245 126.623 569.67 126.548V126.548Z" fill="#6C63FF"/>
<path opacity="0.2" d="M558.42 106.63C559.42 106.078 560.2 107.427 559.19 108.02L558.39 108.453C555.21 110.149 552.61 112.65 550.16 115.236C549.497 115.826 549.022 116.55 548.78 117.339C549.562 115.335 550.772 113.469 552.35 111.836C553.907 110.234 555.598 108.729 557.41 107.333C557.717 107.07 558.056 106.834 558.42 106.63V106.63Z" fill="#6C63FF"/>
<path opacity="0.6" d="M597.89 155.802C600.94 157.133 598.36 160.796 595.22 159.584C594.4 159.262 593.6 158.906 592.83 158.575C583.5 154.462 572.66 152.953 562 151.791C559.38 151.503 556.59 151.257 554.17 152.13C560.83 150.666 567.762 150.314 574.58 151.096C581.327 151.875 587.993 153.091 594.52 154.734C595.682 154.995 596.811 155.353 597.89 155.802Z" fill="#6C63FF"/>
<path opacity="0.5" d="M589.16 170.048C591.36 171.744 587.93 173.829 585.63 172.167C585.03 171.727 584.45 171.269 583.9 170.836C577.21 165.511 568.38 161.721 559.57 158.227C557.42 157.379 548.52 156.531 546.15 156.531C552.35 157.006 565.01 158.643 570.64 160.771C576.171 163.005 581.517 165.554 586.64 168.403C587.539 168.883 588.382 169.434 589.16 170.048V170.048Z" fill="#6C63FF"/>
<path opacity="0.6" d="M563.3 195.605C563.57 198.149 559.4 197.733 559 195.189C558.9 194.519 558.83 193.858 558.76 193.222C557.97 185.472 554.36 177.645 550.55 170.065C549.62 168.208 543.68 162.526 541.88 161.22C546.13 165.079 554.27 173.465 556.76 178.264C559.12 183.044 561.098 187.954 562.68 192.959C562.984 193.823 563.192 194.708 563.3 195.605V195.605Z" fill="#6C63FF"/>
<path opacity="0.6" d="M565.8 109.903C565.722 109.943 565.632 109.964 565.54 109.962C565.46 109.948 565.385 109.916 565.324 109.87C565.262 109.824 565.216 109.765 565.19 109.699C564.82 109.004 565.03 108.113 564.46 107.537C563.875 108.133 563.402 108.802 563.06 109.521L560.87 108.944C560.765 109.305 560.748 109.679 560.821 110.045C560.893 110.411 561.053 110.761 561.29 111.073C560.917 111.218 560.578 111.419 560.29 111.666C560.143 111.794 560.041 111.953 559.993 112.126C559.946 112.3 559.955 112.481 560.02 112.65C560.526 112.758 561.048 112.804 561.57 112.786C561.492 113.602 561.549 114.424 561.74 115.228C561.753 115.349 561.822 115.461 561.93 115.541C562.018 115.571 562.114 115.579 562.208 115.566C562.301 115.552 562.388 115.518 562.46 115.465C563.22 115.069 563.844 114.51 564.27 113.846L565.08 115.491C565.14 115.66 565.267 115.807 565.44 115.906C565.564 115.944 565.7 115.945 565.825 115.909C565.95 115.874 566.057 115.804 566.13 115.711C566.263 115.519 566.345 115.305 566.37 115.084L566.68 113.506C566.683 113.425 566.718 113.348 566.78 113.286C566.871 113.227 566.986 113.199 567.1 113.21C567.87 113.21 568.65 113.21 569.42 113.21C569.56 112.862 569.14 112.54 568.75 112.362C568.36 112.184 567.88 112.099 567.68 111.777C567.28 111.107 568.33 110.182 567.88 109.614C567.43 109.046 566.48 109.614 565.8 109.903Z" fill="#6C63FF"/>
<path opacity="0.2" d="M572.42 186.498C572.34 186.537 572.252 186.56 572.16 186.566C571.99 186.566 571.88 186.421 571.81 186.294C571.44 185.607 571.65 184.709 571.08 184.132C570.491 184.726 570.019 185.396 569.68 186.116L567.49 185.54C567.386 185.9 567.369 186.274 567.439 186.639C567.51 187.005 567.666 187.355 567.9 187.668C567.526 187.814 567.187 188.019 566.9 188.27C566.752 188.397 566.649 188.556 566.601 188.73C566.554 188.903 566.564 189.085 566.63 189.254C567.138 189.355 567.659 189.398 568.18 189.381C568.098 190.197 568.152 191.019 568.34 191.823C568.354 191.944 568.422 192.057 568.53 192.137C568.69 192.221 568.9 192.137 569.07 192.06C569.827 191.663 570.448 191.105 570.87 190.441L571.69 192.086C571.744 192.258 571.872 192.406 572.05 192.501C572.173 192.538 572.307 192.539 572.43 192.504C572.553 192.468 572.659 192.399 572.73 192.306C572.868 192.116 572.953 191.901 572.98 191.679L573.28 190.102C573.292 190.022 573.326 189.947 573.38 189.881C573.474 189.821 573.593 189.793 573.71 189.805C574.48 189.805 575.26 189.805 576.03 189.805C576.16 189.457 575.75 189.135 575.36 188.957C574.97 188.779 574.49 188.694 574.29 188.372C573.89 187.702 574.93 186.786 574.49 186.21C574.05 185.633 573.1 186.21 572.42 186.498Z" fill="#6C63FF"/>
<path opacity="0.6" d="M591 135.155C590.92 135.192 590.831 135.216 590.74 135.222C590.57 135.222 590.46 135.078 590.39 134.951C590.01 134.264 590.23 133.365 589.65 132.789C589.068 133.385 588.599 134.054 588.26 134.773L586.06 134.196C585.958 134.557 585.943 134.931 586.015 135.297C586.087 135.662 586.245 136.012 586.48 136.325C586.104 136.469 585.765 136.674 585.48 136.927C585.332 137.054 585.229 137.213 585.181 137.386C585.134 137.56 585.144 137.741 585.21 137.91C585.718 138.012 586.239 138.055 586.76 138.038C586.678 138.854 586.732 139.676 586.92 140.48C586.933 140.601 587.002 140.713 587.11 140.793C587.198 140.823 587.294 140.831 587.388 140.818C587.481 140.804 587.568 140.77 587.64 140.717C588.4 140.321 589.024 139.762 589.45 139.097L590.27 140.743C590.324 140.915 590.452 141.063 590.63 141.158C590.753 141.195 590.886 141.196 591.01 141.16C591.133 141.125 591.239 141.055 591.31 140.963C591.449 140.773 591.531 140.558 591.55 140.335L591.86 138.758C591.863 138.677 591.898 138.6 591.96 138.538C592.051 138.479 592.166 138.451 592.28 138.462C593.06 138.462 593.83 138.462 594.61 138.462C594.74 138.114 594.33 137.792 593.93 137.614C593.53 137.435 593.07 137.351 592.87 137.028C592.46 136.359 593.51 135.434 593.07 134.866C592.63 134.298 591.68 134.866 591 135.155Z" fill="#6C63FF"/>
<path opacity="0.6" d="M516.69 194.18C516.581 194.236 516.457 194.268 516.33 194.273C516.1 194.273 515.94 194.07 515.84 193.892C515.32 192.934 515.62 191.696 514.84 190.882C514.028 191.712 513.373 192.645 512.9 193.646L509.84 192.849C509.697 193.351 509.674 193.873 509.774 194.383C509.874 194.893 510.093 195.38 510.42 195.817C509.88 196.019 509.391 196.306 508.98 196.665C508.775 196.841 508.631 197.061 508.564 197.302C508.497 197.543 508.509 197.795 508.6 198.03C509.306 198.18 510.033 198.243 510.76 198.216C510.652 199.351 510.729 200.492 510.99 201.608C510.998 201.693 511.027 201.776 511.073 201.852C511.119 201.927 511.183 201.994 511.26 202.049C511.48 202.168 511.77 202.049 512 201.939C513.054 201.383 513.922 200.606 514.52 199.683L515.65 201.981C515.73 202.22 515.912 202.426 516.16 202.558C516.339 202.62 516.538 202.626 516.721 202.575C516.904 202.523 517.06 202.418 517.16 202.278C517.35 202.022 517.466 201.731 517.5 201.43L517.92 199.242C517.918 199.179 517.934 199.116 517.965 199.058C517.996 199 518.042 198.949 518.1 198.908C518.157 198.867 518.225 198.838 518.298 198.823C518.371 198.807 518.447 198.806 518.52 198.818C519.6 198.818 520.67 198.818 521.75 198.818C521.94 198.335 521.36 197.877 520.81 197.674C520.26 197.47 519.61 197.318 519.33 196.826C518.77 195.902 520.22 194.613 519.6 193.816C518.81 192.857 517.64 193.782 516.69 194.18Z" fill="#6C63FF"/>
<path opacity="0.6" d="M485.77 136.689C485.66 136.743 485.536 136.772 485.41 136.774C485.18 136.774 485.02 136.579 484.92 136.401C484.4 135.443 484.7 134.196 483.92 133.391C483.108 134.221 482.453 135.154 481.98 136.155L478.92 135.35C478.777 135.852 478.754 136.374 478.854 136.883C478.954 137.393 479.173 137.881 479.5 138.317C478.965 138.526 478.477 138.813 478.06 139.165C477.855 139.343 477.712 139.565 477.647 139.808C477.581 140.05 477.596 140.303 477.69 140.539C478.393 140.686 479.117 140.748 479.84 140.726C479.732 141.86 479.81 143.001 480.07 144.117C480.079 144.201 480.107 144.283 480.153 144.357C480.2 144.431 480.263 144.497 480.34 144.55C480.56 144.677 480.85 144.55 481.08 144.448C482.137 143.891 483.006 143.111 483.6 142.184L484.73 144.49C484.819 144.726 484.999 144.929 485.24 145.067C485.413 145.115 485.599 145.114 485.771 145.063C485.942 145.012 486.09 144.916 486.19 144.787C486.378 144.53 486.495 144.24 486.53 143.939L486.95 141.743C486.962 141.631 487.014 141.524 487.1 141.438C487.162 141.394 487.234 141.362 487.312 141.343C487.389 141.324 487.47 141.319 487.55 141.328C488.63 141.328 489.7 141.328 490.78 141.328C490.97 140.836 490.4 140.386 489.84 140.183C489.28 139.979 488.64 139.818 488.36 139.335C487.8 138.411 489.25 137.122 488.64 136.325C487.89 135.4 486.72 136.291 485.77 136.689Z" fill="#6C63FF"/>
<path opacity="0.2" d="M579.59 172.286C579.534 172.319 579.468 172.337 579.4 172.337C579.34 172.327 579.285 172.303 579.24 172.269C579.194 172.235 579.16 172.191 579.14 172.142C578.87 171.625 579.03 170.972 578.6 170.539C578.181 170.983 577.844 171.477 577.6 172.006L575.97 171.582C575.895 171.85 575.884 172.127 575.937 172.398C575.99 172.668 576.107 172.927 576.28 173.16C575.995 173.263 575.737 173.413 575.52 173.601C575.41 173.694 575.333 173.812 575.298 173.941C575.263 174.07 575.27 174.204 575.32 174.33C575.693 174.407 576.077 174.438 576.46 174.423C576.399 175.03 576.442 175.641 576.59 176.238C576.599 176.327 576.65 176.409 576.73 176.467C576.795 176.488 576.866 176.494 576.935 176.483C577.004 176.473 577.068 176.447 577.12 176.407C577.685 176.114 578.147 175.698 578.46 175.203L579.06 176.433C579.105 176.558 579.201 176.666 579.33 176.738C579.423 176.764 579.524 176.764 579.616 176.736C579.708 176.708 579.787 176.655 579.84 176.585C579.934 176.436 579.989 176.271 580 176.102L580.22 174.932C580.221 174.899 580.23 174.866 580.247 174.836C580.265 174.806 580.289 174.78 580.32 174.759C580.35 174.738 580.386 174.723 580.424 174.714C580.462 174.706 580.501 174.705 580.54 174.711C581.11 174.711 581.68 174.711 582.25 174.711C582.35 174.457 582.05 174.22 581.76 174.109C581.47 173.999 581.11 173.914 580.97 173.677C580.67 173.185 581.44 172.498 581.11 172.074C580.78 171.65 580.1 172.083 579.59 172.286Z" fill="#6C63FF"/>
<path opacity="0.2" d="M537.59 192.849C537.532 192.879 537.467 192.896 537.4 192.9C537.339 192.889 537.283 192.864 537.237 192.828C537.192 192.792 537.158 192.747 537.14 192.696C536.87 192.188 537.03 191.535 536.6 191.102C536.179 191.544 535.841 192.039 535.6 192.569L533.97 192.145C533.896 192.412 533.885 192.689 533.938 192.96C533.991 193.231 534.108 193.49 534.28 193.722C533.995 193.826 533.737 193.976 533.52 194.163C533.41 194.257 533.333 194.375 533.298 194.504C533.263 194.633 533.27 194.767 533.32 194.893C533.693 194.97 534.077 195.001 534.46 194.986C534.398 195.59 534.442 196.199 534.59 196.792C534.597 196.882 534.643 196.967 534.72 197.029C534.84 197.089 535 197.029 535.12 196.97C535.685 196.677 536.147 196.261 536.46 195.766L537.06 196.995C537.105 197.121 537.201 197.229 537.33 197.301C537.423 197.326 537.523 197.324 537.615 197.297C537.707 197.269 537.786 197.217 537.84 197.148C537.938 197.009 537.996 196.852 538.01 196.69L538.24 195.52C538.241 195.487 538.25 195.454 538.267 195.424C538.285 195.394 538.309 195.368 538.34 195.347C538.37 195.326 538.406 195.311 538.444 195.303C538.482 195.294 538.521 195.293 538.56 195.3C539.13 195.3 539.7 195.3 540.27 195.3C540.37 195.045 540.07 194.799 539.78 194.697C539.49 194.596 539.13 194.502 538.99 194.265C538.69 193.773 539.46 193.086 539.13 192.662C538.8 192.238 538.09 192.645 537.59 192.849Z" fill="#6C63FF"/>
<path opacity="0.5" d="M497 120.884C496.942 120.912 496.877 120.929 496.81 120.934C496.68 120.934 496.6 120.824 496.55 120.731C496.27 120.222 496.43 119.561 496 119.137C495.577 119.577 495.239 120.073 495 120.604L493.3 120.137C493.221 120.404 493.207 120.681 493.258 120.952C493.31 121.223 493.426 121.483 493.6 121.715C493.319 121.824 493.062 121.973 492.84 122.155C492.731 122.25 492.655 122.368 492.62 122.496C492.584 122.625 492.591 122.759 492.64 122.885C493.016 122.961 493.403 122.995 493.79 122.986C493.73 123.59 493.77 124.198 493.91 124.793C493.913 124.837 493.928 124.88 493.952 124.919C493.976 124.959 494.009 124.994 494.05 125.022C494.17 125.089 494.32 125.022 494.44 124.971C495.003 124.675 495.465 124.26 495.78 123.767L496.38 124.988C496.422 125.114 496.518 125.223 496.65 125.293C496.741 125.323 496.843 125.325 496.936 125.299C497.029 125.273 497.108 125.22 497.16 125.149C497.26 125.006 497.321 124.847 497.34 124.682L497.56 123.521C497.566 123.459 497.594 123.399 497.64 123.351C497.674 123.33 497.713 123.314 497.754 123.305C497.795 123.296 497.838 123.295 497.88 123.3C498.45 123.3 499.02 123.3 499.6 123.3C499.69 123.037 499.39 122.8 499.1 122.69C498.81 122.579 498.46 122.503 498.31 122.257C498.01 121.765 498.78 121.087 498.46 120.663C498.14 120.239 497.45 120.672 497 120.884Z" fill="#6C63FF"/>
<path opacity="0.5" d="M518.58 161.441C518.518 161.457 518.452 161.457 518.39 161.441C518.27 161.441 518.18 161.339 518.13 161.246C517.85 160.737 518.01 160.076 517.59 159.643C517.166 160.086 516.828 160.585 516.59 161.119L514.97 160.686C514.893 160.953 514.881 161.231 514.934 161.502C514.987 161.773 515.105 162.032 515.28 162.263C514.994 162.369 514.733 162.519 514.51 162.704C514.402 162.799 514.326 162.917 514.291 163.046C514.256 163.174 514.262 163.308 514.31 163.434C514.686 163.51 515.073 163.544 515.46 163.535C515.4 164.139 515.44 164.747 515.58 165.341C515.589 165.43 515.64 165.513 515.72 165.57C515.84 165.638 516 165.57 516.12 165.52C516.68 165.223 517.138 164.808 517.45 164.315L518.06 165.536C518.102 165.663 518.198 165.772 518.33 165.842C518.421 165.867 518.518 165.866 518.608 165.84C518.699 165.814 518.776 165.764 518.83 165.698C518.934 165.557 518.996 165.397 519.01 165.231L519.24 164.07C519.242 164.008 519.267 163.949 519.31 163.9C519.38 163.859 519.465 163.838 519.55 163.841C520.12 163.841 520.7 163.841 521.27 163.841C521.37 163.578 521.06 163.34 520.77 163.23C520.48 163.12 520.13 163.044 519.98 162.798C519.69 162.306 520.46 161.619 520.13 161.195C519.8 160.771 519.08 161.229 518.58 161.441Z" fill="#6C63FF"/>
<path opacity="0.5" d="M502.88 145.627C502.822 145.656 502.757 145.674 502.69 145.678C502.629 145.666 502.573 145.641 502.527 145.606C502.482 145.57 502.448 145.524 502.43 145.474C502.15 144.965 502.31 144.304 501.89 143.88C501.466 144.32 501.128 144.815 500.89 145.347L499.27 144.923C499.193 145.19 499.181 145.467 499.235 145.738C499.288 146.009 499.405 146.269 499.58 146.5C499.294 146.606 499.033 146.755 498.81 146.941C498.702 147.036 498.626 147.154 498.591 147.282C498.556 147.411 498.562 147.545 498.61 147.67C498.986 147.748 499.373 147.78 499.76 147.763C499.7 148.367 499.74 148.975 499.88 149.57C499.883 149.615 499.897 149.66 499.921 149.7C499.946 149.741 499.979 149.777 500.02 149.807C500.14 149.866 500.3 149.807 500.42 149.748C500.982 149.454 501.441 149.038 501.75 148.544L502.36 149.773C502.405 149.899 502.501 150.007 502.63 150.078C502.721 150.104 502.82 150.103 502.911 150.075C503.002 150.048 503.079 149.995 503.13 149.926C503.231 149.784 503.293 149.624 503.31 149.459L503.54 148.298C503.542 148.239 503.567 148.182 503.61 148.137C503.678 148.092 503.764 148.07 503.85 148.077C504.42 148.077 505 148.077 505.57 148.077C505.67 147.823 505.36 147.577 505.07 147.475C504.78 147.373 504.43 147.28 504.28 147.043C503.98 146.551 504.76 145.864 504.43 145.44C504.1 145.016 503.38 145.415 502.88 145.627Z" fill="#6C63FF"/>
<path opacity="0.5" d="M570.32 149.349C570.262 149.377 570.197 149.395 570.13 149.4C570.068 149.391 570.011 149.366 569.965 149.33C569.919 149.294 569.886 149.248 569.87 149.197C569.59 148.688 569.75 148.035 569.32 147.602C568.899 148.044 568.561 148.539 568.32 149.069L566.7 148.645C566.622 148.912 566.608 149.189 566.66 149.46C566.711 149.731 566.827 149.99 567 150.223C566.717 150.329 566.459 150.478 566.24 150.664C566.13 150.757 566.053 150.875 566.018 151.004C565.983 151.133 565.99 151.267 566.04 151.393C566.416 151.471 566.803 151.502 567.19 151.486C567.13 152.09 567.17 152.698 567.31 153.292C567.313 153.338 567.327 153.382 567.351 153.423C567.375 153.464 567.409 153.5 567.45 153.53C567.57 153.589 567.72 153.53 567.84 153.47C568.405 153.177 568.867 152.761 569.18 152.266L569.78 153.496C569.825 153.621 569.921 153.729 570.05 153.801C570.143 153.827 570.244 153.827 570.336 153.799C570.428 153.771 570.507 153.718 570.56 153.648C570.661 153.507 570.723 153.347 570.74 153.182L570.96 152.02C570.961 151.987 570.97 151.954 570.987 151.924C571.005 151.894 571.029 151.868 571.06 151.847C571.09 151.826 571.126 151.811 571.164 151.803C571.202 151.795 571.241 151.794 571.28 151.8C571.85 151.8 572.42 151.8 573 151.8C573.09 151.545 572.79 151.299 572.5 151.198C572.21 151.096 571.86 151.003 571.71 150.765C571.41 150.273 572.18 149.587 571.86 149.163C571.54 148.739 570.82 149.137 570.32 149.349Z" fill="#6C63FF"/>
<path opacity="0.2" d="M537.59 146.237C537.534 146.27 537.468 146.288 537.4 146.288C537.34 146.278 537.285 146.254 537.24 146.22C537.194 146.186 537.16 146.142 537.14 146.093C536.87 145.584 537.03 144.923 536.6 144.49C536.181 144.934 535.844 145.428 535.6 145.957L533.97 145.533C533.895 145.801 533.884 146.078 533.937 146.349C533.99 146.619 534.107 146.878 534.28 147.111C533.995 147.214 533.737 147.364 533.52 147.552C533.41 147.645 533.333 147.763 533.298 147.892C533.263 148.021 533.27 148.155 533.32 148.281C533.693 148.358 534.077 148.389 534.46 148.374C534.398 148.981 534.442 149.592 534.59 150.189C534.6 150.276 534.646 150.357 534.72 150.418C534.787 150.439 534.859 150.445 534.93 150.434C535 150.424 535.066 150.397 535.12 150.358C535.685 150.065 536.147 149.649 536.46 149.154L537.06 150.384C537.105 150.509 537.201 150.617 537.33 150.689C537.423 150.714 537.523 150.712 537.615 150.685C537.707 150.657 537.786 150.605 537.84 150.536C537.938 150.397 537.996 150.24 538.01 150.078L538.24 148.908C538.241 148.875 538.25 148.842 538.267 148.812C538.285 148.782 538.309 148.756 538.34 148.735C538.37 148.714 538.406 148.699 538.444 148.691C538.482 148.683 538.521 148.682 538.56 148.688C539.13 148.688 539.7 148.688 540.27 148.688C540.37 148.433 540.07 148.196 539.78 148.086C539.49 147.975 539.13 147.891 538.99 147.653C538.69 147.161 539.46 146.475 539.13 146.051C538.8 145.627 538.09 146.034 537.59 146.237Z" fill="#6C63FF"/>
<path opacity="0.3" d="M527.33 150.028C527.268 150.056 527.2 150.073 527.13 150.078C527.01 150.078 526.93 149.968 526.87 149.875C526.6 149.366 526.76 148.705 526.33 148.281C525.909 148.723 525.571 149.218 525.33 149.748L523.7 149.324C523.626 149.591 523.615 149.868 523.668 150.139C523.721 150.41 523.838 150.669 524.01 150.901C523.725 151.004 523.466 151.154 523.25 151.342C523.14 151.436 523.063 151.554 523.028 151.682C522.993 151.811 523 151.946 523.05 152.071C523.423 152.148 523.807 152.18 524.19 152.164C524.133 152.769 524.177 153.377 524.32 153.97C524.322 154.015 524.336 154.059 524.36 154.098C524.384 154.138 524.418 154.172 524.46 154.199C524.58 154.267 524.73 154.199 524.85 154.149C525.413 153.853 525.875 153.438 526.19 152.944L526.79 154.166C526.832 154.294 526.928 154.406 527.06 154.479C527.153 154.506 527.254 154.505 527.346 154.477C527.438 154.45 527.517 154.397 527.57 154.327C527.665 154.183 527.727 154.024 527.75 153.86L527.97 152.699C527.971 152.665 527.98 152.633 527.997 152.603C528.015 152.573 528.039 152.546 528.07 152.525C528.1 152.504 528.136 152.489 528.174 152.481C528.212 152.473 528.251 152.472 528.29 152.478C528.86 152.478 529.43 152.478 530.01 152.478C530.1 152.224 529.8 151.978 529.51 151.868C529.22 151.757 528.87 151.681 528.72 151.444C528.42 150.943 529.19 150.265 528.86 149.841C528.53 149.417 527.83 149.816 527.33 150.028Z" fill="#6C63FF"/>
<path opacity="0.2" d="M517.75 127.107C517.693 127.138 517.627 127.153 517.56 127.15C517.44 127.15 517.35 127.048 517.3 126.955C517.03 126.446 517.19 125.785 516.76 125.352C516.341 125.795 516.004 126.29 515.76 126.819L514.13 126.395C514.055 126.662 514.044 126.939 514.097 127.21C514.15 127.481 514.267 127.74 514.44 127.972C514.155 128.076 513.897 128.226 513.68 128.413C513.57 128.507 513.493 128.625 513.458 128.754C513.423 128.883 513.43 129.017 513.48 129.143C513.853 129.219 514.236 129.253 514.62 129.244C514.558 129.849 514.602 130.457 514.75 131.05C514.76 131.138 514.806 131.219 514.88 131.279C515 131.347 515.16 131.279 515.28 131.22C515.844 130.93 516.307 130.517 516.62 130.024L517.22 131.245C517.265 131.371 517.361 131.479 517.49 131.551C517.582 131.575 517.681 131.574 517.772 131.548C517.864 131.523 517.944 131.473 518 131.407C518.097 131.264 518.155 131.104 518.17 130.94L518.4 129.779C518.406 129.716 518.434 129.657 518.48 129.609C518.55 129.567 518.634 129.546 518.72 129.55C519.29 129.55 519.86 129.55 520.43 129.55C520.53 129.287 520.23 129.049 519.94 128.939C519.65 128.829 519.29 128.744 519.15 128.507C518.85 128.015 519.62 127.328 519.29 126.904C518.96 126.48 518.25 126.921 517.75 127.107Z" fill="#6C63FF"/>
<path opacity="0.3" d="M536.61 157.023C536.571 157.046 536.525 157.061 536.477 157.066C536.429 157.07 536.381 157.065 536.337 157.05C536.292 157.035 536.252 157.01 536.222 156.979C536.191 156.948 536.17 156.91 536.16 156.87C535.88 156.362 536.04 155.7 535.61 155.268C535.191 155.711 534.854 156.206 534.61 156.735L532.99 156.311C532.913 156.577 532.9 156.854 532.952 157.125C533.003 157.396 533.118 157.655 533.29 157.888C533.008 157.996 532.751 158.145 532.53 158.329C532.42 158.423 532.343 158.541 532.308 158.669C532.273 158.798 532.28 158.933 532.33 159.058C532.706 159.136 533.093 159.168 533.48 159.151C533.42 159.758 533.46 160.369 533.6 160.966C533.609 161.055 533.66 161.137 533.74 161.195C533.805 161.216 533.876 161.222 533.945 161.212C534.014 161.201 534.078 161.175 534.13 161.136C534.692 160.843 535.154 160.431 535.47 159.94L536.07 161.161C536.115 161.287 536.211 161.395 536.34 161.466C536.433 161.493 536.534 161.492 536.626 161.464C536.718 161.437 536.797 161.384 536.85 161.314C536.944 161.168 536.995 161.005 537 160.839L537.22 159.669C537.23 159.61 537.258 159.555 537.3 159.508C537.368 159.462 537.454 159.441 537.54 159.448C538.11 159.448 538.69 159.448 539.26 159.448C539.36 159.194 539.05 158.956 538.76 158.846C538.47 158.736 538.12 158.651 537.97 158.414C537.67 157.922 538.45 157.235 538.12 156.811C537.79 156.387 537.11 156.811 536.61 157.023Z" fill="#6C63FF"/>
</g>
<g opacity="0.8">
<path opacity="0.5" d="M788.62 32.7986C786.19 30.0004 781.17 33.0361 783.44 35.9276C784.03 36.6907 784.68 37.42 785.3 38.1238C792.77 46.6796 796.64 57.0669 799.97 67.3271C800.79 69.8709 801.58 72.542 800.65 75.0265C801.99 68.3616 801.12 61.4593 799.1 54.9216C797.08 48.3839 794 42.1261 790.71 35.9106C790.143 34.8144 789.443 33.7714 788.62 32.7986Z" fill="#6C63FF"/>
<path opacity="0.8" d="M740.14 50.7667C735.14 50.631 734.46 57.1178 739.48 57.457C740.8 57.5418 742.12 57.5672 743.39 57.6011C758.82 57.9573 773.39 62.6888 787.44 67.7765C790.88 69.0315 794.44 70.4391 796.51 73.1186C790.19 66.9031 781.86 62.3497 773.01 59.0003C764.16 55.6509 754.72 53.4547 745.29 51.3687C743.605 51.0075 741.878 50.8056 740.14 50.7667V50.7667Z" fill="#6C63FF"/>
<path opacity="0.2" d="M741.53 66.7166C738.35 66.8099 739.07 70.6511 742.27 70.6681C743.11 70.6681 743.95 70.6681 744.75 70.6172C754.48 70.278 764.45 72.559 774.12 75.0604C776.5 75.6794 779 76.3748 780.73 77.8841C775.595 74.5225 769.775 71.9902 763.56 70.4137C757.441 68.8699 751.198 67.7051 744.88 66.9286C743.775 66.7605 742.652 66.6895 741.53 66.7166V66.7166Z" fill="#6C63FF"/>
<path opacity="0.5" d="M806.67 137.995C807.57 140.59 811.77 139.047 811 136.41C810.8 135.723 810.56 135.044 810.33 134.391C807.53 126.48 807.66 117.721 808.12 109.156C808.24 107.054 808.41 104.823 809.7 103.034C807.137 108.084 805.689 113.491 805.43 118.984C805.18 124.397 805.397 129.819 806.08 135.205C806.167 136.15 806.365 137.084 806.67 137.995V137.995Z" fill="#6C63FF"/>
<path opacity="0.2" d="M747.33 29.1779C745.42 28.8981 745.27 31.2639 747.18 31.62C747.68 31.7133 748.18 31.7896 748.67 31.8574C754.53 32.7054 760.14 35.139 765.54 37.6743C766.932 38.215 768.145 39.0394 769.07 40.074C766.504 37.5122 763.406 35.3711 759.93 33.7568C756.506 32.1787 752.954 30.81 749.3 29.6612C748.662 29.449 748.003 29.2872 747.33 29.1779V29.1779Z" fill="#6C63FF"/>
<path opacity="0.8" d="M717.75 91.9007C712.89 94.0205 717 99.8459 721.99 97.9126C723.3 97.4038 724.57 96.8357 725.79 96.3015C740.65 89.7638 757.9 87.3641 774.88 85.5071C779.04 85.0577 783.48 84.6592 787.34 86.0583C776.83 83.5144 765.65 83.3364 754.84 84.3624C744.03 85.3884 733.52 87.7542 723.11 90.1539C721.258 90.5801 719.462 91.1654 717.75 91.9007V91.9007Z" fill="#6C63FF"/>
<path opacity="0.5" d="M731.64 114.566C728.14 117.331 733.64 120.595 737.26 117.958C738.26 117.263 739.13 116.525 740.01 115.83C750.65 107.35 764.72 101.33 778.73 95.7673C782.17 94.4021 796.32 93.0115 800.1 93.0878C790.23 93.834 770.1 96.4796 761.1 99.8714C752.313 103.412 743.821 107.455 735.68 111.972C734.24 112.727 732.888 113.596 731.64 114.566V114.566Z" fill="#6C63FF"/>
<path opacity="0.8" d="M756.56 150.757C755.56 154.708 762.21 154.768 763.45 150.816C763.77 149.782 764.03 148.739 764.28 147.747C767.36 135.646 774.89 123.894 782.69 112.574C784.61 109.792 795.32 101.822 798.48 100.066C790.86 105.442 776.03 117.305 770.97 124.47C766.116 131.62 761.836 139.04 758.16 146.678C757.475 147.991 756.939 149.357 756.56 150.757Z" fill="#6C63FF"/>
<path opacity="0.8" d="M806.72 11.8289C804.34 7.71634 797.54 11.0997 799.72 15.3224C800.29 16.4248 800.92 17.5017 801.53 18.5362C808.85 31.1028 811.37 45.6705 813.26 59.9245C813.72 63.435 814.11 67.166 812.43 70.3882C815.5 61.595 815.91 52.1997 814.85 43.1012C813.79 34.0027 811.26 25.1671 808.62 16.3569C808.17 14.7967 807.533 13.2795 806.72 11.8289V11.8289Z" fill="#6C63FF"/>
<path opacity="0.8" d="M768.82 18.833C768.945 18.8949 769.086 18.9299 769.23 18.9347C769.49 18.9347 769.68 18.7058 769.79 18.5023C770.38 17.4084 770.04 15.9584 770.96 15.1105C771.89 16.0571 772.639 17.1215 773.18 18.2648L776.67 17.3491C776.833 17.9231 776.858 18.5191 776.745 19.1016C776.632 19.6842 776.382 20.2416 776.01 20.7409C776.62 20.9702 777.176 21.2921 777.65 21.6906C777.886 21.8926 778.051 22.1462 778.127 22.4232C778.203 22.7002 778.187 22.9897 778.08 23.2593C777.275 23.4242 776.447 23.4927 775.62 23.4628C775.75 24.7644 775.659 26.0752 775.35 27.3549C775.342 27.4498 775.311 27.5423 775.259 27.6268C775.208 27.7114 775.137 27.7861 775.05 27.8467C774.8 27.9908 774.46 27.8467 774.2 27.7279C773 27.1049 772.011 26.2284 771.33 25.1841L770 27.711C769.906 27.9807 769.7 28.2125 769.42 28.3639C769.223 28.423 769.009 28.4241 768.811 28.3672C768.613 28.3103 768.444 28.1986 768.33 28.0502C768.118 27.7446 767.988 27.4028 767.95 27.0496L767.46 24.5057C767.454 24.3753 767.398 24.2502 767.3 24.1496C767.154 24.0558 766.973 24.0106 766.79 24.0224C765.55 24.0224 764.32 24.0224 763.09 24.0224C762.88 23.4628 763.53 22.9455 764.16 22.7166C764.79 22.4876 765.54 22.3011 765.86 21.7838C766.5 20.7239 764.86 19.24 765.54 18.3412C766.4 17.3236 767.74 18.3836 768.82 18.833Z" fill="#6C63FF"/>
<path opacity="0.5" d="M836.21 32.7986C838.64 30.0004 843.65 33.0361 841.39 35.9276C840.79 36.6907 840.15 37.42 839.53 38.1238C832.06 46.6796 828.19 57.0669 824.85 67.3271C824.03 69.8709 823.24 72.542 824.18 75.0265C822.84 68.3616 823.71 61.4593 825.73 54.9216C827.75 48.3839 830.87 42.1261 834.11 35.936C834.682 34.8324 835.386 33.7812 836.21 32.7986V32.7986Z" fill="#6C63FF"/>
<path opacity="0.8" d="M884.68 50.7667C889.68 50.631 890.36 57.1178 885.34 57.457C884.03 57.5418 882.7 57.5672 881.44 57.6011C866 57.9573 851.44 62.6888 837.39 67.7765C833.95 69.0315 830.33 70.4391 828.32 73.1186C834.64 66.9031 842.96 62.3497 851.82 59.0003C860.68 55.6509 870.1 53.4547 879.54 51.3687C881.222 51.0081 882.946 50.8062 884.68 50.7667V50.7667Z" fill="#6C63FF"/>
<path opacity="0.5" d="M883.29 66.7166C886.48 66.8099 885.76 70.6511 882.56 70.6681C881.72 70.6681 880.88 70.6681 880.08 70.6172C870.34 70.278 860.38 72.559 850.71 75.0604C848.33 75.6794 845.82 76.3747 844.1 77.8841C849.235 74.5225 855.055 71.9902 861.27 70.4137C867.405 68.8622 873.665 67.6917 880 66.9116C881.086 66.7524 882.188 66.6871 883.29 66.7166V66.7166Z" fill="#6C63FF"/>
<path opacity="0.2" d="M877.5 29.1779C879.41 28.8981 879.56 31.2639 877.65 31.62C877.15 31.7133 876.65 31.7896 876.16 31.8574C870.3 32.7054 864.68 35.139 859.28 37.6743C857.891 38.2153 856.681 39.0398 855.76 40.074C858.322 37.5125 861.417 35.3713 864.89 33.7568C868.318 32.1802 871.874 30.8116 875.53 29.6612C876.168 29.449 876.827 29.2872 877.5 29.1779V29.1779Z" fill="#6C63FF"/>
<path opacity="0.2" d="M827.61 142.905C827.18 144.516 824.55 143.753 824.9 142.057C824.99 141.633 825.11 141.209 825.22 140.802C826.55 135.892 826.07 130.559 825.39 125.361C825.34 124.065 824.911 122.8 824.14 121.681C825.939 124.671 827.074 127.916 827.49 131.254C827.891 134.544 828.008 137.854 827.84 141.158C827.835 141.745 827.758 142.331 827.61 142.905V142.905Z" fill="#6C63FF"/>
<path opacity="0.5" d="M876.27 132.212C877.77 134.366 874.09 134.222 872.47 132.068C872.05 131.508 871.66 130.94 871.29 130.372C866.73 123.801 859.8 117.297 852.81 111.013C851.155 109.385 849.224 107.973 847.08 106.825C852.53 109.979 857.56 113.627 862.08 117.704C866.56 121.681 870.52 125.827 874.4 129.965C875.083 130.677 875.708 131.428 876.27 132.212V132.212Z" fill="#6C63FF"/>
<path opacity="0.2" d="M743.14 132.212C741.64 134.366 745.32 134.222 746.93 132.068C747.36 131.508 747.75 130.94 748.12 130.372C752.68 123.801 759.61 117.297 766.6 111.013C768.253 109.383 770.184 107.971 772.33 106.825C766.878 109.977 761.848 113.625 757.33 117.704C752.85 121.681 748.88 125.827 745.01 129.965C744.327 130.677 743.702 131.428 743.14 132.212Z" fill="#6C63FF"/>
<path opacity="0.2" d="M791.83 142.905C792.26 144.516 794.89 143.753 794.54 142.057C794.45 141.633 794.33 141.209 794.22 140.802C792.89 135.892 793.37 130.559 794.05 125.361C794.1 124.065 794.529 122.8 795.3 121.681C793.515 124.682 792.397 127.935 792 131.279C791.599 134.569 791.482 137.879 791.65 141.183C791.641 141.761 791.701 142.338 791.83 142.905V142.905Z" fill="#6C63FF"/>
<path opacity="0.2" d="M862.16 45.3314C864.07 45.0431 864.22 47.4088 862.31 47.7735C861.81 47.8667 861.31 47.9346 860.82 48.0024C854.96 48.8503 849.35 51.2924 843.94 53.8278C842.551 54.3649 841.341 55.1866 840.42 56.219C842.983 53.6574 846.082 51.5187 849.56 49.9103C852.98 48.3252 856.533 46.9563 860.19 45.8147C860.825 45.5948 861.485 45.4327 862.16 45.3314V45.3314Z" fill="#6C63FF"/>
<path opacity="0.2" d="M844.27 13.618C845.92 12.7701 847.1 14.8984 845.48 15.8397C845.06 16.0856 844.62 16.306 844.21 16.5265C839.14 19.1721 835.01 23.2083 831.12 27.2785C830.062 28.2123 829.301 29.3591 828.91 30.6109C830.158 27.4228 832.087 24.4565 834.6 21.8601C837.079 19.3095 839.772 16.9148 842.66 14.6949C843.154 14.2922 843.693 13.9315 844.27 13.618V13.618Z" fill="#6C63FF"/>
<path opacity="0.8" d="M907.08 91.9007C911.94 94.0205 907.83 99.8459 902.84 97.9126C901.53 97.4038 900.25 96.8357 899.04 96.3015C884.18 89.7638 866.92 87.3641 849.95 85.5071C845.79 85.0577 841.35 84.6592 837.49 86.0583C847.99 83.5144 859.18 83.3364 869.99 84.3624C880.8 85.3884 891.31 87.7542 901.72 90.1539C903.571 90.5815 905.367 91.1668 907.08 91.9007Z" fill="#6C63FF"/>
<path opacity="0.5" d="M893.19 114.566C896.68 117.331 891.19 120.595 887.56 117.958C886.61 117.263 885.69 116.525 884.82 115.83C874.17 107.35 860.1 101.33 846.1 95.7673C842.66 94.4021 828.5 93.0115 824.73 93.0878C834.6 93.834 854.73 96.4796 863.73 99.8714C872.52 103.412 881.016 107.455 889.16 111.972C890.596 112.727 891.946 113.596 893.19 114.566V114.566Z" fill="#6C63FF"/>
<path opacity="0.8" d="M852 155.268C852.43 159.296 845.79 158.66 845.15 154.598C844.98 153.538 844.88 152.478 844.78 151.461C843.51 139.131 837.78 126.675 831.71 114.609C830.22 111.649 820.77 102.61 817.89 100.533C824.66 106.672 837.62 120.036 841.58 127.667C845.339 135.273 848.486 143.087 851 151.054C851.486 152.429 851.82 153.84 852 155.268V155.268Z" fill="#6C63FF"/>
<path opacity="0.8" d="M856 18.833C855.875 18.8949 855.734 18.9299 855.59 18.9347C855.32 18.9347 855.14 18.7058 855.03 18.5023C854.43 17.4084 854.78 15.9584 853.86 15.1105C852.93 16.0571 852.181 17.1215 851.64 18.2648L848.15 17.3491C847.985 17.923 847.958 18.5192 848.072 19.1021C848.185 19.685 848.436 20.2424 848.81 20.7409C848.197 20.9702 847.638 21.292 847.16 21.6906C846.927 21.894 846.764 22.1481 846.69 22.4248C846.616 22.7016 846.633 22.9903 846.74 23.2593C847.545 23.4246 848.373 23.4931 849.2 23.4628C849.071 24.7641 849.159 26.0742 849.46 27.3549C849.481 27.5456 849.588 27.722 849.76 27.8467C850.02 27.9908 850.36 27.8467 850.62 27.7279C851.82 27.1049 852.809 26.2284 853.49 25.1841L854.79 27.8127C854.881 28.0839 855.088 28.3166 855.37 28.4657C855.565 28.5257 855.779 28.5273 855.975 28.4703C856.172 28.4132 856.339 28.3009 856.45 28.1519C856.67 27.8485 856.803 27.506 856.84 27.1513L857.32 24.6075C857.334 24.4771 857.393 24.3532 857.49 24.2514C857.636 24.1576 857.817 24.1123 858 24.1242C859.23 24.1242 860.47 24.1242 861.7 24.1242C861.91 23.5645 861.25 23.0473 860.62 22.8183C859.99 22.5894 859.25 22.4028 858.93 21.8856C858.29 20.8256 859.93 19.3417 859.24 18.4429C858.43 17.3236 857.09 18.3836 856 18.833Z" fill="#6C63FF"/>
<path opacity="0.2" d="M866.54 140.751C866.415 140.813 866.274 140.848 866.13 140.853C865.86 140.853 865.68 140.632 865.57 140.429C864.98 139.326 865.32 137.885 864.4 136.986C863.472 137.934 862.723 138.998 862.18 140.14L858.69 139.225C858.527 139.799 858.502 140.395 858.615 140.977C858.728 141.56 858.978 142.117 859.35 142.616C858.74 142.846 858.184 143.168 857.71 143.566C857.474 143.768 857.309 144.022 857.233 144.299C857.157 144.576 857.173 144.865 857.28 145.135C858.084 145.303 858.912 145.374 859.74 145.347C859.609 146.646 859.7 147.954 860.01 149.23C860.018 149.327 860.049 149.42 860.1 149.506C860.152 149.592 860.223 149.669 860.31 149.731C860.56 149.866 860.9 149.731 861.16 149.604C862.36 148.981 863.349 148.104 864.03 147.06L865.33 149.688C865.427 149.959 865.632 150.193 865.91 150.35C866.109 150.398 866.32 150.393 866.515 150.335C866.711 150.278 866.88 150.17 867 150.028C867.212 149.722 867.342 149.38 867.38 149.027L867.87 146.525C867.864 146.453 867.879 146.381 867.912 146.315C867.946 146.249 867.997 146.19 868.062 146.143C868.128 146.097 868.205 146.065 868.288 146.049C868.371 146.032 868.457 146.033 868.54 146.051C869.77 146.051 871.01 146.008 872.24 146.051C872.45 145.491 871.8 144.982 871.17 144.745C870.54 144.507 869.79 144.338 869.47 143.812C868.83 142.761 870.47 141.268 869.79 140.378C869 139.242 867.62 140.302 866.54 140.751Z" fill="#6C63FF"/>
<path opacity="0.8" d="M896.13 59.0257C896.004 59.0924 895.859 59.1277 895.71 59.1275C895.45 59.1275 895.27 58.907 895.16 58.7035C894.56 57.6096 894.9 56.1596 893.99 55.2608C893.061 56.2108 892.312 57.2779 891.77 58.4237L888.28 57.4994C888.114 58.0732 888.087 58.6696 888.201 59.2525C888.314 59.8355 888.566 60.3929 888.94 60.8912C888.325 61.1183 887.766 61.4404 887.29 61.8409C887.059 62.0455 886.897 62.2991 886.821 62.5752C886.745 62.8512 886.759 63.1395 886.86 63.4096C887.668 63.5773 888.499 63.6487 889.33 63.6216C889.201 64.92 889.289 66.2274 889.59 67.5052C889.61 67.6984 889.718 67.8776 889.89 68.0055C890.15 68.1411 890.48 68.0055 890.74 67.8867C891.942 67.2633 892.934 66.3871 893.62 65.3429L894.91 67.9715C895.004 68.2437 895.21 68.4783 895.49 68.6329C895.688 68.6897 895.903 68.6888 896.1 68.6304C896.298 68.5721 896.466 68.4596 896.58 68.3107C896.801 68.008 896.935 67.6651 896.97 67.3101L897.45 64.7663C897.463 64.6399 897.519 64.5193 897.61 64.4186C897.758 64.3213 897.944 64.2758 898.13 64.2915C899.36 64.2915 900.59 64.2915 901.82 64.2915C902.04 63.7403 901.38 63.223 900.75 62.9856C900.12 62.7482 899.37 62.5786 899.06 62.0614C898.42 61.0014 900.06 59.5175 899.37 58.6187C898.55 57.5163 897.2 58.5763 896.13 59.0257Z" fill="#6C63FF"/>
<path opacity="0.8" d="M777.84 152.978C777.668 153.067 777.471 153.117 777.27 153.123C776.9 153.123 776.64 152.809 776.49 152.52C775.66 151.003 776.14 149.018 774.86 147.738C773.567 149.057 772.524 150.539 771.77 152.13L766.9 150.859C766.674 151.658 766.639 152.488 766.797 153.299C766.955 154.11 767.303 154.886 767.82 155.582C766.965 155.896 766.188 156.345 765.53 156.904C765.205 157.187 764.977 157.539 764.872 157.923C764.766 158.307 764.786 158.709 764.93 159.084C766.055 159.317 767.213 159.417 768.37 159.38C768.188 161.192 768.312 163.017 768.74 164.799C768.765 165.064 768.913 165.311 769.15 165.486C769.347 165.554 769.563 165.574 769.773 165.544C769.983 165.514 770.18 165.435 770.34 165.316C772.023 164.437 773.403 163.197 774.34 161.721L776.15 165.384C776.279 165.763 776.567 166.089 776.96 166.3C777.235 166.381 777.534 166.382 777.81 166.302C778.086 166.222 778.322 166.066 778.48 165.859C778.778 165.435 778.959 164.96 779.01 164.468L779.69 160.983C779.698 160.801 779.775 160.625 779.91 160.483C780.117 160.353 780.374 160.293 780.63 160.313C782.35 160.313 784.07 160.254 785.78 160.313C786.08 159.533 785.16 158.821 784.29 158.49C783.42 158.159 782.37 157.922 781.93 157.201C781.03 155.726 783.35 153.674 782.36 152.402C781.21 150.875 779.34 152.359 777.84 152.978Z" fill="#6C63FF"/>
<path opacity="0.8" d="M728.63 61.4678C728.454 61.5563 728.255 61.6059 728.05 61.6119C727.69 61.6119 727.43 61.2982 727.27 61.0099C726.45 59.4836 726.92 57.5079 725.65 56.219C724.354 57.5406 723.308 59.0253 722.55 60.6198L717.69 59.3394C717.459 60.14 717.422 60.9718 717.58 61.7849C717.738 62.598 718.089 63.3756 718.61 64.071C717.754 64.3834 716.976 64.8325 716.32 65.3938C715.992 65.6745 715.763 66.0268 715.657 66.4115C715.551 66.7962 715.573 67.1983 715.72 67.573C716.845 67.8046 718.003 67.9017 719.16 67.8613C718.979 69.6728 719.1 71.4969 719.52 73.2797C719.531 73.4137 719.574 73.5444 719.646 73.6639C719.718 73.7834 719.818 73.8893 719.94 73.975C720.3 74.1701 720.76 73.975 721.13 73.8054C722.811 72.9239 724.19 71.6843 725.13 70.2101L726.94 73.8733C727.074 74.2477 727.357 74.5712 727.74 74.7891C728.015 74.8706 728.314 74.8715 728.59 74.7915C728.866 74.7116 729.102 74.5554 729.26 74.3481C729.561 73.9249 729.745 73.4495 729.8 72.9575L730.47 69.4639C730.487 69.2843 730.567 69.1131 730.7 68.9721C730.905 68.8388 731.163 68.7781 731.42 68.8025C733.13 68.8025 734.85 68.7432 736.57 68.7517C736.86 67.98 735.95 67.2593 735.07 66.9371C734.19 66.6148 733.15 66.3605 732.71 65.6397C731.82 64.1643 734.13 62.1207 733.15 60.8488C732 59.3649 730.13 60.8318 728.63 61.4678Z" fill="#6C63FF"/>
<path opacity="0.2" d="M878 118.136C877.911 118.186 877.807 118.212 877.7 118.213C877.5 118.213 877.37 118.043 877.28 117.899C876.84 117.051 877.1 116.033 876.42 115.355C875.73 116.053 875.177 116.84 874.78 117.687L872.19 117.008C872.061 117.438 872.038 117.886 872.122 118.324C872.206 118.761 872.396 119.18 872.68 119.552C872.227 119.723 871.813 119.961 871.46 120.256C871.29 120.408 871.171 120.596 871.116 120.801C871.062 121.005 871.073 121.218 871.15 121.418C871.746 121.536 872.358 121.587 872.97 121.57C872.871 122.532 872.939 123.5 873.17 124.445C873.175 124.516 873.198 124.586 873.235 124.65C873.273 124.715 873.326 124.772 873.39 124.818C873.58 124.92 873.83 124.818 874.02 124.725C874.911 124.257 875.642 123.599 876.14 122.817L877.14 124.759C877.212 124.96 877.364 125.134 877.57 125.25C877.717 125.293 877.876 125.292 878.023 125.249C878.17 125.206 878.295 125.123 878.38 125.013C878.539 124.789 878.635 124.536 878.66 124.275L879.02 122.418C879.016 122.365 879.028 122.312 879.053 122.263C879.078 122.214 879.117 122.171 879.166 122.137C879.214 122.103 879.272 122.079 879.334 122.068C879.395 122.056 879.459 122.057 879.52 122.071C880.44 122.071 881.35 122.071 882.26 122.071C882.42 121.655 881.93 121.274 881.47 121.104C881.01 120.934 880.47 120.799 880.21 120.417C879.74 119.629 880.97 118.543 880.44 117.873C879.91 117.203 878.76 117.805 878 118.136Z" fill="#6C63FF"/>
<path opacity="0.2" d="M811.11 150.867C811.017 150.916 810.91 150.943 810.8 150.943C810.61 150.943 810.47 150.774 810.39 150.621C809.95 149.816 810.2 148.764 809.53 148.077C808.839 148.779 808.282 149.569 807.88 150.418L805.3 149.739C805.171 150.169 805.149 150.617 805.233 151.054C805.317 151.492 805.507 151.91 805.79 152.283C805.335 152.45 804.921 152.689 804.57 152.987C804.396 153.137 804.274 153.325 804.217 153.53C804.161 153.735 804.172 153.949 804.25 154.149C804.849 154.267 805.465 154.319 806.08 154.301C805.982 155.262 806.046 156.23 806.27 157.176C806.276 157.246 806.299 157.314 806.336 157.377C806.374 157.44 806.426 157.495 806.49 157.54C806.68 157.651 806.93 157.54 807.12 157.456C808.015 156.989 808.749 156.331 809.25 155.548L810.25 157.489C810.322 157.691 810.474 157.865 810.68 157.981C810.827 158.023 810.986 158.023 811.133 157.98C811.279 157.937 811.405 157.854 811.49 157.744C811.649 157.52 811.745 157.267 811.77 157.006L812.13 155.149C812.138 155.053 812.18 154.962 812.25 154.886C812.362 154.821 812.495 154.789 812.63 154.793C813.54 154.793 814.45 154.793 815.37 154.793C815.52 154.377 815.04 153.996 814.57 153.826C814.1 153.657 813.57 153.521 813.32 153.139C812.84 152.351 814.07 151.266 813.55 150.596C813.03 149.926 811.91 150.528 811.11 150.867Z" fill="#6C63FF"/>
<path opacity="0.5" d="M746.41 36.3092C746.32 36.3574 746.216 36.3839 746.11 36.3855C746.013 36.3707 745.922 36.3337 745.848 36.2784C745.774 36.223 745.72 36.1516 745.69 36.0717C745.25 35.2238 745.5 34.2063 744.83 33.5279C744.139 34.227 743.582 35.0139 743.18 35.8598L740.6 35.1814C740.473 35.6114 740.451 36.0588 740.536 36.4962C740.62 36.9336 740.808 37.3518 741.09 37.7252C740.635 37.8895 740.221 38.1255 739.87 38.4206C739.697 38.5711 739.576 38.7588 739.519 38.9636C739.463 39.1683 739.473 39.3823 739.55 39.5822C740.148 39.7089 740.764 39.7603 741.38 39.7349C741.283 40.6987 741.347 41.6693 741.57 42.6179C741.578 42.6886 741.602 42.7572 741.642 42.8198C741.681 42.8824 741.735 42.9378 741.8 42.9825C741.99 43.0843 742.23 42.9825 742.43 42.8977C743.322 42.4274 744.053 41.7665 744.55 40.9814L745.55 42.9316C745.618 43.1321 745.771 43.3042 745.98 43.415C746.127 43.4571 746.286 43.4566 746.433 43.4137C746.58 43.3707 746.705 43.2876 746.79 43.1775C746.949 42.9533 747.045 42.7008 747.07 42.4398L747.43 40.5913C747.438 40.4954 747.48 40.4037 747.55 40.3284C747.657 40.2561 747.794 40.2226 747.93 40.2352C748.84 40.2352 749.76 40.2352 750.67 40.2352C750.82 39.8281 750.34 39.4466 749.87 39.2685C749.4 39.0904 748.87 38.9632 748.62 38.5817C748.14 37.8016 749.38 36.7077 748.85 36.0378C748.32 35.3679 747.21 35.9785 746.41 36.3092Z" fill="#6C63FF"/>
<path opacity="0.5" d="M780.84 100.863C780.751 100.914 780.647 100.941 780.54 100.94C780.34 100.94 780.21 100.779 780.13 100.626C779.69 99.7781 779.94 98.7606 779.26 98.0822C778.576 98.7838 778.023 99.5702 777.62 100.414L775.03 99.7357C774.906 100.166 774.886 100.613 774.97 101.05C775.054 101.487 775.241 101.905 775.52 102.28C775.069 102.449 774.659 102.688 774.31 102.983C774.136 103.133 774.014 103.321 773.957 103.526C773.901 103.731 773.912 103.945 773.99 104.145C774.585 104.268 775.198 104.319 775.81 104.298C775.716 105.262 775.784 106.232 776.01 107.181C776.016 107.251 776.039 107.319 776.076 107.382C776.114 107.445 776.166 107.5 776.23 107.545C776.42 107.647 776.67 107.545 776.86 107.452C777.755 106.985 778.489 106.327 778.99 105.544L779.99 107.486C780.056 107.69 780.209 107.865 780.42 107.978C780.565 108.021 780.724 108.021 780.869 107.978C781.014 107.935 781.138 107.851 781.22 107.74C781.383 107.517 781.482 107.264 781.51 107.003L781.87 105.154C781.87 105.05 781.916 104.95 782 104.874C782.052 104.837 782.113 104.81 782.178 104.794C782.244 104.778 782.313 104.773 782.38 104.781C783.287 104.781 784.197 104.781 785.11 104.781C785.27 104.374 784.79 103.984 784.32 103.814C783.85 103.645 783.32 103.509 783.07 103.128C782.59 102.347 783.82 101.254 783.3 100.584C782.78 99.9138 781.64 100.533 780.84 100.863Z" fill="#6C63FF"/>
<path opacity="0.5" d="M755.85 75.7049C755.757 75.7479 755.655 75.7739 755.55 75.7812C755.454 75.7626 755.366 75.7231 755.294 75.6665C755.222 75.61 755.169 75.5384 755.14 75.4589C754.7 74.6534 754.95 73.6019 754.27 72.9151C753.582 73.6176 753.029 74.4073 752.63 75.2554L750.04 74.5771C749.917 75.0074 749.897 75.4541 749.982 75.891C750.066 76.3279 750.252 76.7461 750.53 77.1209C750.075 77.2852 749.661 77.5212 749.31 77.8162C749.14 77.9681 749.021 78.1563 748.966 78.3608C748.912 78.5654 748.923 78.7786 749 78.9779C749.594 79.1049 750.208 79.1564 750.82 79.1306C750.726 80.0948 750.794 81.0653 751.02 82.0136C751.026 82.0837 751.049 82.1522 751.086 82.2148C751.124 82.2774 751.176 82.333 751.24 82.3782C751.43 82.48 751.68 82.3782 751.87 82.2934C752.764 81.8217 753.498 81.1614 754 80.377L755 82.3273C755.066 82.5265 755.215 82.6984 755.42 82.8107C755.567 82.8528 755.726 82.8523 755.873 82.8094C756.02 82.7664 756.145 82.6833 756.23 82.5732C756.393 82.3497 756.492 82.0972 756.52 81.8355L756.87 79.987C756.878 79.8911 756.92 79.7994 756.99 79.7241C757.1 79.6505 757.241 79.6169 757.38 79.6309C758.287 79.6309 759.197 79.6309 760.11 79.6309C760.27 79.2238 759.78 78.8423 759.32 78.6642C758.86 78.4861 758.32 78.3589 758.06 77.9774C757.59 77.1972 758.82 76.1034 758.3 75.4335C757.78 74.7636 756.65 75.3657 755.85 75.7049Z" fill="#6C63FF"/>
<path opacity="0.5" d="M863.19 81.6236C863.101 81.674 862.997 81.7006 862.89 81.6999C862.69 81.6999 862.56 81.5388 862.48 81.3861C862.04 80.5382 862.29 79.5206 861.61 78.8423C860.922 79.5418 860.369 80.3287 859.97 81.1741L857.38 80.4958C857.256 80.926 857.236 81.3729 857.32 81.81C857.404 82.247 857.591 82.6652 857.87 83.0396C857.417 83.2101 857.003 83.4485 856.65 83.7434C856.48 83.8953 856.361 84.0835 856.306 84.288C856.252 84.4925 856.263 84.7058 856.34 84.9051C856.935 85.0279 857.548 85.0793 858.16 85.0577C858.066 86.0219 858.134 86.9925 858.36 87.9408C858.366 88.0109 858.389 88.0794 858.426 88.142C858.464 88.2046 858.516 88.2602 858.58 88.3054C858.77 88.4071 859.02 88.3054 859.21 88.2121C860.105 87.7452 860.839 87.0873 861.34 86.3042L862.34 88.246C862.406 88.4497 862.559 88.625 862.77 88.7378C862.916 88.7794 863.073 88.7786 863.218 88.7356C863.363 88.6926 863.487 88.6098 863.57 88.5004C863.733 88.2769 863.832 88.0243 863.86 87.7627L864.22 85.9142C864.215 85.8601 864.225 85.8058 864.249 85.7557C864.274 85.7056 864.312 85.6613 864.361 85.6264C864.41 85.5915 864.468 85.5671 864.531 85.5552C864.593 85.5433 864.658 85.5443 864.72 85.558C865.633 85.558 866.543 85.558 867.45 85.558C867.61 85.151 867.12 84.761 866.66 84.5914C866.2 84.4218 865.66 84.2861 865.4 83.9045C864.93 83.1244 866.16 82.0306 865.64 81.3607C865.12 80.6908 864 81.2929 863.19 81.6236Z" fill="#6C63FF"/>
<path opacity="0.2" d="M811.11 76.6715C811.017 76.7209 810.91 76.7473 810.8 76.7478C810.61 76.7478 810.47 76.5867 810.39 76.4341C809.95 75.5862 810.2 74.5686 809.53 73.8903C808.839 74.5894 808.282 75.3763 807.88 76.2221L805.3 75.5438C805.173 75.9737 805.151 76.4211 805.236 76.8585C805.32 77.296 805.508 77.7142 805.79 78.0876C805.335 78.2519 804.921 78.4878 804.57 78.7829C804.397 78.9334 804.276 79.1212 804.219 79.326C804.163 79.5307 804.173 79.7446 804.25 79.9446C804.848 80.0716 805.464 80.123 806.08 80.0972C805.983 81.061 806.047 82.0316 806.27 82.9803C806.287 83.1208 806.366 83.2508 806.49 83.3449C806.68 83.4466 806.93 83.3449 807.12 83.2601C808.016 82.7909 808.751 82.1299 809.25 81.3437L810.25 83.294C810.318 83.4945 810.471 83.6666 810.68 83.7773C810.827 83.8195 810.986 83.819 811.133 83.776C811.28 83.7331 811.405 83.65 811.49 83.5399C811.649 83.3156 811.745 83.0631 811.77 82.8022L812.13 80.9537C812.138 80.8578 812.18 80.7661 812.25 80.6908C812.357 80.6185 812.494 80.5849 812.63 80.5975C813.54 80.5975 814.45 80.5975 815.37 80.5975C815.52 80.1905 815.04 79.8089 814.57 79.6309C814.1 79.4528 813.57 79.3256 813.32 78.944C812.84 78.1639 814.07 77.0701 813.55 76.4002C813.03 75.7303 811.91 76.3408 811.11 76.6715Z" fill="#6C63FF"/>
<path opacity="0.3" d="M794.76 82.7089C794.667 82.752 794.565 82.778 794.46 82.7852C794.364 82.7667 794.276 82.7272 794.204 82.6706C794.132 82.6141 794.079 82.5425 794.05 82.463C793.61 81.6151 793.86 80.606 793.18 79.9192C792.49 80.6204 791.936 81.4104 791.54 82.2595L788.95 81.5727C788.828 82.003 788.808 82.4497 788.892 82.8865C788.977 83.3233 789.163 83.7415 789.44 84.1165C788.985 84.2808 788.571 84.5168 788.22 84.8118C788.049 84.9637 787.931 85.1519 787.876 85.3564C787.821 85.561 787.833 85.7742 787.91 85.9735C788.504 86.1006 789.118 86.152 789.73 86.1262C789.636 87.0904 789.704 88.061 789.93 89.0092C789.936 89.0794 789.959 89.1478 789.996 89.2104C790.034 89.273 790.086 89.3286 790.15 89.3738C790.34 89.4756 790.59 89.3738 790.78 89.289C791.674 88.8173 792.408 88.157 792.91 87.3727L793.91 89.3229C793.978 89.5234 794.131 89.6955 794.34 89.8063C794.486 89.8478 794.643 89.847 794.788 89.804C794.933 89.761 795.057 89.6782 795.14 89.5688C795.303 89.3453 795.402 89.0928 795.43 88.8311L795.79 86.9826C795.794 86.8875 795.833 86.7958 795.9 86.7197C796.01 86.6461 796.151 86.6125 796.29 86.6265C797.203 86.6265 798.113 86.6265 799.02 86.6265C799.18 86.2194 798.69 85.8379 798.23 85.6598C797.77 85.4817 797.23 85.3545 796.97 84.973C796.5 84.1928 797.73 83.099 797.21 82.4291C796.69 81.7592 795.56 82.3698 794.76 82.7089Z" fill="#6C63FF"/>
<path opacity="0.2" d="M779.53 46.2132C779.437 46.2626 779.33 46.289 779.22 46.2895C779.03 46.2895 778.89 46.1284 778.81 45.9758C778.37 45.1278 778.62 44.1103 777.95 43.4319C777.259 44.1311 776.702 44.918 776.3 45.7638L773.72 45.0854C773.591 45.5152 773.568 45.963 773.652 46.4007C773.736 46.8384 773.926 47.2567 774.21 47.6293C773.757 47.7997 773.343 48.0381 772.99 48.3331C772.816 48.4831 772.694 48.6709 772.637 48.8758C772.581 49.0807 772.592 49.2949 772.67 49.4948C773.269 49.6172 773.885 49.6685 774.5 49.6474C774.403 50.6112 774.467 51.5818 774.69 52.5304C774.707 52.6709 774.786 52.8009 774.91 52.8951C775.1 52.9968 775.35 52.8951 775.54 52.8018C776.438 52.3381 777.173 51.6794 777.67 50.8939L778.67 52.8357C778.742 53.0369 778.894 53.2108 779.1 53.3275C779.247 53.3696 779.406 53.3692 779.553 53.3262C779.699 53.2832 779.825 53.2002 779.91 53.0901C780.069 52.8658 780.165 52.6133 780.19 52.3524L780.55 50.5038C780.556 50.4077 780.598 50.3157 780.67 50.241C780.777 50.1686 780.914 50.1351 781.05 50.1477C781.96 50.1477 782.88 50.1477 783.79 50.1477C783.94 49.7322 783.46 49.3506 782.99 49.181C782.52 49.0114 781.99 48.8758 781.74 48.4942C781.26 47.7056 782.49 46.6202 781.97 45.9504C781.45 45.2805 780.33 45.8825 779.53 46.2132Z" fill="#6C63FF"/>
<path opacity="0.3" d="M809.54 93.851C809.443 93.893 809.338 93.9189 809.23 93.9273C809.04 93.9273 808.9 93.7577 808.82 93.6051C808.38 92.7995 808.63 91.7481 807.96 91.0612C807.269 91.7634 806.712 92.5531 806.31 93.4016L803.73 92.7232C803.602 93.1531 803.579 93.6007 803.664 94.0382C803.748 94.4758 803.937 94.894 804.22 95.267C803.765 95.4313 803.351 95.6673 803 95.9624C802.827 96.1129 802.706 96.3006 802.649 96.5054C802.593 96.7101 802.603 96.9241 802.68 97.124C803.278 97.2507 803.895 97.3021 804.51 97.2767C804.413 98.2405 804.477 99.2111 804.7 100.16C804.717 100.3 804.796 100.43 804.92 100.524C805.11 100.626 805.36 100.524 805.56 100.44C806.451 99.9676 807.182 99.3072 807.68 98.5232L808.68 100.473C808.748 100.674 808.901 100.846 809.11 100.957C809.257 100.999 809.416 100.998 809.563 100.955C809.71 100.912 809.835 100.829 809.92 100.719C810.079 100.495 810.175 100.243 810.2 99.9816L810.56 98.1331C810.568 98.0372 810.61 97.9455 810.68 97.8702C810.787 97.7979 810.924 97.7644 811.06 97.777C811.97 97.777 812.89 97.777 813.8 97.777C813.95 97.37 813.47 96.9884 813 96.8103C812.53 96.6322 812 96.505 811.75 96.1235C811.27 95.3433 812.5 94.2495 811.98 93.5796C811.46 92.9097 810.34 93.4948 809.54 93.851Z" fill="#6C63FF"/>
</g>
</g>
<defs>
<clipPath id="clip0">
<rect width="1086" height="688" fill="white"/>
</clipPath>
</defs>
</svg>
