<svg width="867" height="638" viewBox="0 0 867 638" fill="none" xmlns="http://www.w3.org/2000/svg">
<g clip-path="url(#clip0)">
<rect width="866.524" height="637.056" fill="white"/>
<path d="M805 637.056V564.716C805 564.716 833.192 616.002 805 637.056Z" fill="#F1F1F1"/>
<path d="M806.741 637.044L753.452 588.122C753.452 588.122 810.297 602.038 806.741 637.044Z" fill="#F1F1F1"/>
<path d="M576.528 445.971C576.41 444.646 576.583 443.312 577.036 442.062C577.488 440.812 578.21 439.676 579.149 438.735C580.088 437.793 581.223 437.07 582.472 436.614C583.721 436.159 585.055 435.983 586.38 436.099L595.986 417.668L608.611 420.774L594.679 446.611C594.336 448.824 593.195 450.834 591.47 452.26C589.745 453.687 587.556 454.432 585.319 454.353C583.081 454.274 580.951 453.377 579.331 451.832C577.711 450.287 576.713 448.202 576.528 445.971H576.528Z" fill="#FFB7B7"/>
<path d="M633.871 625.527L623.218 625.526L618.15 584.437L633.873 584.438L633.871 625.527Z" fill="#FFB7B7"/>
<path d="M636.587 635.853L602.239 635.852V635.417C602.239 631.871 603.648 628.471 606.155 625.964C608.662 623.457 612.062 622.048 615.608 622.048H615.609L636.588 622.049L636.587 635.853Z" fill="#2F2E41"/>
<path d="M719.549 617.569L709.271 620.371L693.57 582.063L708.739 577.927L719.549 617.569Z" fill="#FFB7B7"/>
<path d="M724.887 626.816L691.748 635.853L691.634 635.434C690.701 632.013 691.165 628.361 692.924 625.283C694.683 622.204 697.593 619.951 701.014 619.018L701.015 619.017L721.255 613.498L724.887 626.816Z" fill="#2F2E41"/>
<path d="M614.423 448.033L609.109 528.727L620.524 619.261L639.221 613.554L640.009 532.663L654.966 486.018L699.25 610.602L719.521 603.123L702.792 522.232L693.345 446.262L614.423 448.033Z" fill="#2F2E41"/>
<path d="M666.084 306.334L634.599 310.977L623.256 322.195L619.734 362.502L621.921 398.204L612.803 461.163C612.803 461.163 635.733 448.434 653.503 464.368C671.274 480.302 696.139 467.184 696.65 456.584L666.084 306.334Z" fill="#CBCBCB"/>
<path d="M650.096 356.885L650.096 356.84L665.737 305.856L665.939 305.843C667.052 305.771 693.276 304.225 699.141 317.173L699.17 317.236L697.388 370.219L699.842 453.198L651.341 463.703L650.989 463.779L650.096 356.885Z" fill="#2F2E41"/>
<path d="M632.763 353.361L635.632 310.14C615.225 311.41 615.532 325.878 615.556 326.509L615.333 391.159L611.246 460.323L626.106 459.208L632.763 353.361Z" fill="#2F2E41"/>
<path d="M586.747 432.005L604.864 389.958L617.51 366.736L624.112 408.625L601.19 443.009L586.747 432.005Z" fill="#2F2E41"/>
<path d="M661.622 416.534C661.899 415.234 662.458 414.01 663.26 412.949C664.061 411.888 665.086 411.016 666.261 410.394C667.436 409.772 668.733 409.414 670.061 409.348C671.389 409.281 672.716 409.507 673.947 410.008L688.563 395.231L699.71 401.923L678.775 422.501C677.796 424.514 676.112 426.098 674.043 426.952C671.974 427.807 669.663 427.872 667.548 427.137C665.434 426.401 663.663 424.916 662.57 422.962C661.478 421.008 661.141 418.721 661.622 416.534V416.534Z" fill="#FFB7B7"/>
<path d="M673.913 404.614L703.714 371.921L683.988 343.772L686.018 330.01L697.645 315.648L697.872 315.941C699.111 317.545 728.234 355.381 729.069 369.704C729.908 384.08 688.049 420.446 686.266 421.986L686.018 422.201L673.913 404.614Z" fill="#2F2E41"/>
<path d="M647.916 302.793C659.615 302.793 669.098 293.31 669.098 281.612C669.098 269.914 659.615 260.431 647.916 260.431C636.218 260.431 626.735 269.914 626.735 281.612C626.735 293.31 636.218 302.793 647.916 302.793Z" fill="#FFB7B7"/>
<path d="M667.838 264.679L668.865 262.612L663.698 260.045C663.698 260.045 657.998 250.77 647.684 253.377C637.369 255.983 632.729 257.543 632.729 257.543L627.575 260.136L630.162 262.71L625.521 264.269L628.621 265.81L625.014 267.883L626.956 278.511C626.956 278.511 630.181 270.45 636.381 273.531C642.582 276.611 653.923 271.938 653.923 271.938L663.776 291.007C663.776 291.007 665.809 284.322 669.433 286.105C669.433 286.105 678.691 271.36 667.838 264.679Z" fill="#2F2E41"/>
<path d="M531.276 472.144H197.149V73.1887H531.276V472.144Z" fill="white"/>
<path d="M531.276 472.144H197.149V73.1887H531.276V472.144ZM203.044 466.25H525.382V79.0832H203.044V466.25Z" fill="#E5E5E5"/>
<path d="M470.442 244.695H279.408V253.727H470.442V244.695Z" fill="#E5E5E5"/>
<path d="M470.442 268.178H279.408V277.21H470.442V268.178Z" fill="#E5E5E5"/>
<path d="M470.442 291.661H279.408V300.694H470.442V291.661Z" fill="#E5E5E5"/>
<path d="M263.877 256.428C267.133 256.428 269.772 253.789 269.772 250.534C269.772 247.278 267.133 244.639 263.877 244.639C260.622 244.639 257.983 247.278 257.983 250.534C257.983 253.789 260.622 256.428 263.877 256.428Z" fill="#E5E5E5"/>
<path d="M470.442 143.505H279.408V152.537H470.442V143.505Z" fill="#E5E5E5"/>
<path d="M470.442 166.989H279.408V176.021H470.442V166.989Z" fill="#E5E5E5"/>
<path d="M470.442 190.472H279.408V199.504H470.442V190.472Z" fill="#E5E5E5"/>
<path d="M263.877 154.257C267.133 154.257 269.772 151.617 269.772 148.362C269.772 145.107 267.133 142.467 263.877 142.467C260.622 142.467 257.983 145.107 257.983 148.362C257.983 151.617 260.622 154.257 263.877 154.257Z" fill="#E5E5E5"/>
<path d="M470.442 346.867H279.408V355.899H470.442V346.867Z" fill="#E5E5E5"/>
<path d="M470.442 370.35H279.408V379.382H470.442V370.35Z" fill="#E5E5E5"/>
<path d="M470.442 393.833H279.408V402.866H470.442V393.833Z" fill="#E5E5E5"/>
<path d="M263.877 357.618C267.133 357.618 269.772 354.979 269.772 351.723C269.772 348.468 267.133 345.829 263.877 345.829C260.622 345.829 257.983 348.468 257.983 351.723C257.983 354.979 260.622 357.618 263.877 357.618Z" fill="#E5E5E5"/>
<path d="M515.677 506.498C553.394 506.498 583.97 475.922 583.97 438.205C583.97 400.488 553.394 369.912 515.677 369.912C477.959 369.912 447.384 400.488 447.384 438.205C447.384 475.922 477.959 506.498 515.677 506.498Z" fill="#6310CB"/>
<path d="M534.598 433.848V420.781C534.6 418.295 534.112 415.833 533.162 413.536C532.212 411.239 530.818 409.151 529.061 407.393C527.304 405.635 525.217 404.24 522.921 403.288C520.624 402.336 518.163 401.846 515.677 401.846C513.191 401.846 510.729 402.336 508.433 403.288C506.136 404.24 504.05 405.635 502.293 407.393C500.536 409.151 499.142 411.239 498.192 413.536C497.242 415.833 496.754 418.295 496.756 420.781V433.848C494.227 433.962 491.839 435.047 490.089 436.877C488.339 438.706 487.361 441.14 487.36 443.672V474.551H543.994V443.672C543.992 441.14 543.015 438.706 541.265 436.877C539.515 435.047 537.127 433.962 534.598 433.848V433.848ZM515.677 408.522C518.927 408.526 522.043 409.819 524.341 412.117C526.639 414.415 527.932 417.531 527.935 420.781V433.826H503.418V420.781C503.422 417.531 504.715 414.415 507.013 412.117C509.311 409.819 512.427 408.526 515.677 408.522Z" fill="white"/>
<path d="M520.768 449.098C520.768 448.22 520.541 447.357 520.11 446.593C519.678 445.828 519.056 445.189 518.304 444.736C517.553 444.283 516.696 444.032 515.819 444.007C514.942 443.983 514.073 444.186 513.297 444.596C512.521 445.006 511.864 445.61 511.391 446.349C510.917 447.088 510.643 447.937 510.594 448.814C510.545 449.69 510.724 450.564 511.113 451.351C511.502 452.138 512.088 452.811 512.813 453.305V464.37H518.54V453.305C519.226 452.838 519.788 452.211 520.177 451.478C520.565 450.745 520.768 449.927 520.768 449.098V449.098Z" fill="#6310CB"/>
<path d="M865.524 636.65H484.524C484.258 636.65 484.004 636.545 483.816 636.357C483.629 636.17 483.524 635.915 483.524 635.65C483.524 635.385 483.629 635.13 483.816 634.943C484.004 634.755 484.258 634.65 484.524 634.65H865.524C865.789 634.65 866.043 634.755 866.231 634.943C866.418 635.13 866.524 635.385 866.524 635.65C866.524 635.915 866.418 636.17 866.231 636.357C866.043 636.545 865.789 636.65 865.524 636.65Z" fill="#CBCBCB"/>
</g>
<defs>
<clipPath id="clip0">
<rect width="866.524" height="637.056" fill="white"/>
</clipPath>
</defs>
</svg>
